<?xml version="1.0" encoding="utf-8" standalone="no"?>
<!DOCTYPE svg PUBLIC "-//W3C//DTD SVG 1.1//EN"
  "http://www.w3.org/Graphics/SVG/1.1/DTD/svg11.dtd">
<svg height="288pt" version="1.1" viewBox="0 0 432 288" width="432pt" xmlns="http://www.w3.org/2000/svg" xmlns:xlink="http://www.w3.org/1999/xlink">
 <metadata>
  <rdf:RDF xmlns:cc="http://creativecommons.org/ns#" xmlns:dc="http://purl.org/dc/elements/1.1/" xmlns:rdf="http://www.w3.org/1999/02/22-rdf-syntax-ns#">
   <cc:Work>
    <dc:type rdf:resource="http://purl.org/dc/dcmitype/StillImage"/>
    <dc:date>2023-11-25T20:31:54.209847</dc:date>
    <dc:format>image/svg+xml</dc:format>
    <dc:creator>
     <cc:Agent>
      <dc:title>Matplotlib v3.4.1, https://matplotlib.org/</dc:title>
     </cc:Agent>
    </dc:creator>
   </cc:Work>
  </rdf:RDF>
 </metadata>
 <defs>
  <style type="text/css">*{stroke-linecap:butt;stroke-linejoin:round;}</style>
 </defs>
 <g id="figure_1">
  <g id="patch_1">
   <path d="M 0 288 
L 432 288 
L 432 0 
L 0 0 
z
" style="fill:#ffffff;"/>
  </g>
  <g id="axes_1">
   <g id="patch_2">
    <path d="M 54 252 
L 388.8 252 
L 388.8 34.56 
L 54 34.56 
z
" style="fill:#ffffff;"/>
   </g>
   <g id="PathCollection_1">
    <path clip-path="url(#p6914166761)" d="M 295.434398 89.966888 
C 295.726762 89.966888 296.00719 89.850731 296.213923 89.643999 
C 296.420655 89.437266 296.536812 89.156838 296.536812 88.864474 
C 296.536812 88.57211 296.420655 88.291682 296.213923 88.084949 
C 296.00719 87.878217 295.726762 87.76206 295.434398 87.76206 
C 295.142034 87.76206 294.861606 87.878217 294.654873 88.084949 
C 294.448141 88.291682 294.331984 88.57211 294.331984 88.864474 
C 294.331984 89.156838 294.448141 89.437266 294.654873 89.643999 
C 294.861606 89.850731 295.142034 89.966888 295.434398 89.966888 
z
" style="fill:#481f70;stroke:#481f70;"/>
    <path clip-path="url(#p6914166761)" d="M 287.208354 163.954804 
C 287.684645 163.954804 288.141492 163.765571 288.478281 163.428783 
C 288.815069 163.091994 289.004302 162.635147 289.004302 162.158856 
C 289.004302 161.682565 288.815069 161.225718 288.478281 160.888929 
C 288.141492 160.552141 287.684645 160.362908 287.208354 160.362908 
C 286.732063 160.362908 286.275216 160.552141 285.938427 160.888929 
C 285.601638 161.225718 285.412406 161.682565 285.412406 162.158856 
C 285.412406 162.635147 285.601638 163.091994 285.938427 163.428783 
C 286.275216 163.765571 286.732063 163.954804 287.208354 163.954804 
z
" style="fill:#a8db34;stroke:#a8db34;"/>
    <path clip-path="url(#p6914166761)" d="M 225.513022 201.97746 
C 226.059577 201.97746 226.58382 201.760311 226.970293 201.373838 
C 227.356765 200.987366 227.573914 200.463123 227.573914 199.916568 
C 227.573914 199.370013 227.356765 198.84577 226.970293 198.459297 
C 226.58382 198.072825 226.059577 197.855676 225.513022 197.855676 
C 224.966467 197.855676 224.442224 198.072825 224.055752 198.459297 
C 223.669279 198.84577 223.45213 199.370013 223.45213 199.916568 
C 223.45213 200.463123 223.669279 200.987366 224.055752 201.373838 
C 224.442224 201.760311 224.966467 201.97746 225.513022 201.97746 
z
" style="fill:#ece51b;stroke:#ece51b;"/>
    <path clip-path="url(#p6914166761)" d="M 307.773464 190.447305 
C 308.207322 190.447305 308.623469 190.274931 308.930253 189.968147 
C 309.237037 189.661363 309.409411 189.245217 309.409411 188.811359 
C 309.409411 188.3775 309.237037 187.961354 308.930253 187.65457 
C 308.623469 187.347786 308.207322 187.175412 307.773464 187.175412 
C 307.339606 187.175412 306.92346 187.347786 306.616676 187.65457 
C 306.309892 187.961354 306.137518 188.3775 306.137518 188.811359 
C 306.137518 189.245217 306.309892 189.661363 306.616676 189.968147 
C 306.92346 190.274931 307.339606 190.447305 307.773464 190.447305 
z
" style="fill:#450559;stroke:#450559;"/>
    <path clip-path="url(#p6914166761)" d="M 291.321376 129.280065 
C 292.026254 129.280065 292.702356 129.000014 293.20078 128.50159 
C 293.699204 128.003166 293.979255 127.327064 293.979255 126.622186 
C 293.979255 125.917308 293.699204 125.241205 293.20078 124.742782 
C 292.702356 124.244358 292.026254 123.964307 291.321376 123.964307 
C 290.616498 123.964307 289.940395 124.244358 289.441972 124.742782 
C 288.943548 125.241205 288.663497 125.917308 288.663497 126.622186 
C 288.663497 127.327064 288.943548 128.003166 289.441972 128.50159 
C 289.940395 129.000014 290.616498 129.280065 291.321376 129.280065 
z
" style="fill:#50c46a;stroke:#50c46a;"/>
    <path clip-path="url(#p6914166761)" d="M 167.930713 205.321473 
C 168.186056 205.321473 168.430975 205.220024 168.61153 205.039469 
C 168.792085 204.858914 168.893534 204.613995 168.893534 204.358652 
C 168.893534 204.103308 168.792085 203.858389 168.61153 203.677834 
C 168.430975 203.497279 168.186056 203.39583 167.930713 203.39583 
C 167.675369 203.39583 167.43045 203.497279 167.249895 203.677834 
C 167.06934 203.858389 166.967891 204.103308 166.967891 204.358652 
C 166.967891 204.613995 167.06934 204.858914 167.249895 205.039469 
C 167.43045 205.220024 167.675369 205.321473 167.930713 205.321473 
z
" style="fill:#fde725;stroke:#fde725;"/>
    <path clip-path="url(#p6914166761)" d="M 184.382801 236.983513 
C 184.788635 236.983513 185.177901 236.822274 185.464869 236.535306 
C 185.751837 236.248338 185.913076 235.859072 185.913076 235.453238 
C 185.913076 235.047404 185.751837 234.658138 185.464869 234.37117 
C 185.177901 234.084202 184.788635 233.922963 184.382801 233.922963 
C 183.976967 233.922963 183.587701 234.084202 183.300733 234.37117 
C 183.013765 234.658138 182.852526 235.047404 182.852526 235.453238 
C 182.852526 235.859072 183.013765 236.248338 183.300733 236.535306 
C 183.587701 236.822274 183.976967 236.983513 184.382801 236.983513 
z
" style="fill:#3f4889;stroke:#3f4889;"/>
    <path clip-path="url(#p6914166761)" d="M 365.355774 61.695958 
C 365.807953 61.695958 366.241673 61.516306 366.561411 61.196567 
C 366.88115 60.876828 367.060803 60.443108 367.060803 59.99093 
C 367.060803 59.538751 366.88115 59.105031 366.561411 58.785292 
C 366.241673 58.465553 365.807953 58.285901 365.355774 58.285901 
C 364.903595 58.285901 364.469875 58.465553 364.150137 58.785292 
C 363.830398 59.105031 363.650745 59.538751 363.650745 59.99093 
C 363.650745 60.443108 363.830398 60.876828 364.150137 61.196567 
C 364.469875 61.516306 364.903595 61.695958 365.355774 61.695958 
z
" style="fill:#1fa188;stroke:#1fa188;"/>
    <path clip-path="url(#p6914166761)" d="M 213.173956 135.664573 
C 213.804943 135.664573 214.410172 135.413879 214.856348 134.967704 
C 215.302523 134.521528 215.553217 133.916299 215.553217 133.285312 
C 215.553217 132.654324 215.302523 132.049095 214.856348 131.60292 
C 214.410172 131.156744 213.804943 130.90605 213.173956 130.90605 
C 212.542968 130.90605 211.937739 131.156744 211.491564 131.60292 
C 211.045388 132.049095 210.794694 132.654324 210.794694 133.285312 
C 210.794694 133.916299 211.045388 134.521528 211.491564 134.967704 
C 211.937739 135.413879 212.542968 135.664573 213.173956 135.664573 
z
" style="fill:#38598c;stroke:#38598c;"/>
    <path clip-path="url(#p6914166761)" d="M 233.739066 122.019952 
C 234.285621 122.019952 234.809864 121.802803 235.196337 121.416331 
C 235.582809 121.029858 235.799958 120.505615 235.799958 119.95906 
C 235.799958 119.412505 235.582809 118.888262 235.196337 118.50179 
C 234.809864 118.115317 234.285621 117.898169 233.739066 117.898169 
C 233.192511 117.898169 232.668269 118.115317 232.281796 118.50179 
C 231.895323 118.888262 231.678175 119.412505 231.678175 119.95906 
C 231.678175 120.505615 231.895323 121.029858 232.281796 121.416331 
C 232.668269 121.802803 233.192511 122.019952 233.739066 122.019952 
z
" style="fill:#fbe723;stroke:#fbe723;"/>
    <path clip-path="url(#p6914166761)" d="M 118.574447 206.341274 
C 119.689272 206.341274 120.758587 205.89835 121.546887 205.110049 
C 122.335187 204.321749 122.778112 203.252435 122.778112 202.13761 
C 122.778112 201.022785 122.335187 199.95347 121.546887 199.16517 
C 120.758587 198.37687 119.689272 197.933945 118.574447 197.933945 
C 117.459622 197.933945 116.390308 198.37687 115.602008 199.16517 
C 114.813707 199.95347 114.370783 201.022785 114.370783 202.13761 
C 114.370783 203.252435 114.813707 204.321749 115.602008 205.110049 
C 116.390308 205.89835 117.459622 206.341274 118.574447 206.341274 
z
" style="fill:#481f70;stroke:#481f70;"/>
    <path clip-path="url(#p6914166761)" d="M 262.530221 235.217067 
C 263.056615 235.217067 263.56152 235.007928 263.933737 234.635712 
C 264.305953 234.263495 264.515092 233.75859 264.515092 233.232196 
C 264.515092 232.705802 264.305953 232.200897 263.933737 231.828681 
C 263.56152 231.456464 263.056615 231.247326 262.530221 231.247326 
C 262.003827 231.247326 261.498922 231.456464 261.126706 231.828681 
C 260.754489 232.200897 260.545351 232.705802 260.545351 233.232196 
C 260.545351 233.75859 260.754489 234.263495 261.126706 234.635712 
C 261.498922 235.007928 262.003827 235.217067 262.530221 235.217067 
z
" style="fill:#38588c;stroke:#38588c;"/>
    <path clip-path="url(#p6914166761)" d="M 287.208354 46.031113 
C 287.629358 46.031113 288.033175 45.863846 288.330869 45.566152 
C 288.628564 45.268457 288.79583 44.86464 288.79583 44.443636 
C 288.79583 44.022633 288.628564 43.618815 288.330869 43.321121 
C 288.033175 43.023426 287.629358 42.85616 287.208354 42.85616 
C 286.78735 42.85616 286.383533 43.023426 286.085838 43.321121 
C 285.788144 43.618815 285.620877 44.022633 285.620877 44.443636 
C 285.620877 44.86464 285.788144 45.268457 286.085838 45.566152 
C 286.383533 45.863846 286.78735 46.031113 287.208354 46.031113 
z
" style="fill:#3f4788;stroke:#3f4788;"/>
    <path clip-path="url(#p6914166761)" d="M 209.060934 225.878304 
C 209.466767 225.878304 209.856034 225.717064 210.143002 225.430096 
C 210.429969 225.143129 210.591209 224.753862 210.591209 224.348029 
C 210.591209 223.942195 210.429969 223.552929 210.143002 223.265961 
C 209.856034 222.978993 209.466767 222.817754 209.060934 222.817754 
C 208.6551 222.817754 208.265834 222.978993 207.978866 223.265961 
C 207.691898 223.552929 207.530659 223.942195 207.530659 224.348029 
C 207.530659 224.753862 207.691898 225.143129 207.978866 225.430096 
C 208.265834 225.717064 208.6551 225.878304 209.060934 225.878304 
z
" style="fill:#482576;stroke:#482576;"/>
    <path clip-path="url(#p6914166761)" d="M 295.434398 83.936421 
C 295.894545 83.936421 296.335907 83.753603 296.66128 83.42823 
C 296.986652 83.102857 297.169471 82.661495 297.169471 82.201348 
C 297.169471 81.741202 296.986652 81.29984 296.66128 80.974467 
C 296.335907 80.649094 295.894545 80.466276 295.434398 80.466276 
C 294.974251 80.466276 294.532889 80.649094 294.207516 80.974467 
C 293.882144 81.29984 293.699325 81.741202 293.699325 82.201348 
C 293.699325 82.661495 293.882144 83.102857 294.207516 83.42823 
C 294.532889 83.753603 294.974251 83.936421 295.434398 83.936421 
z
" style="fill:#d8e219;stroke:#d8e219;"/>
    <path clip-path="url(#p6914166761)" d="M 225.513022 233.228374 
C 226.101036 233.228374 226.665045 232.994753 227.080833 232.578965 
C 227.496621 232.163177 227.730242 231.599168 227.730242 231.011154 
C 227.730242 230.423141 227.496621 229.859132 227.080833 229.443343 
C 226.665045 229.027555 226.101036 228.793935 225.513022 228.793935 
C 224.925009 228.793935 224.361 229.027555 223.945211 229.443343 
C 223.529423 229.859132 223.295803 230.423141 223.295803 231.011154 
C 223.295803 231.599168 223.529423 232.163177 223.945211 232.578965 
C 224.361 232.994753 224.925009 233.228374 225.513022 233.228374 
z
" style="fill:#1f948c;stroke:#1f948c;"/>
    <path clip-path="url(#p6914166761)" d="M 287.208354 179.800059 
C 287.763665 179.800059 288.296307 179.579431 288.688971 179.186767 
C 289.081636 178.794102 289.302263 178.26146 289.302263 177.706149 
C 289.302263 177.150838 289.081636 176.618196 288.688971 176.225532 
C 288.296307 175.832867 287.763665 175.61224 287.208354 175.61224 
C 286.653043 175.61224 286.120401 175.832867 285.727736 176.225532 
C 285.335072 176.618196 285.114444 177.150838 285.114444 177.706149 
C 285.114444 178.26146 285.335072 178.794102 285.727736 179.186767 
C 286.120401 179.579431 286.653043 179.800059 287.208354 179.800059 
z
" style="fill:#48c16e;stroke:#48c16e;"/>
    <path clip-path="url(#p6914166761)" d="M 303.660442 179.745175 
C 304.201198 179.745175 304.719879 179.53033 305.102251 179.147958 
C 305.484623 178.765586 305.699468 178.246905 305.699468 177.706149 
C 305.699468 177.165393 305.484623 176.646712 305.102251 176.26434 
C 304.719879 175.881968 304.201198 175.667124 303.660442 175.667124 
C 303.119686 175.667124 302.601006 175.881968 302.218633 176.26434 
C 301.836261 176.646712 301.621417 177.165393 301.621417 177.706149 
C 301.621417 178.246905 301.836261 178.765586 302.218633 179.147958 
C 302.601006 179.53033 303.119686 179.745175 303.660442 179.745175 
z
" style="fill:#8ed645;stroke:#8ed645;"/>
    <path clip-path="url(#p6914166761)" d="M 250.191155 182.167209 
C 250.785215 182.167209 251.355023 181.931187 251.775087 181.511123 
C 252.195151 181.09106 252.431173 180.521251 252.431173 179.927191 
C 252.431173 179.333131 252.195151 178.763322 251.775087 178.343259 
C 251.355023 177.923195 250.785215 177.687173 250.191155 177.687173 
C 249.597095 177.687173 249.027286 177.923195 248.607223 178.343259 
C 248.187159 178.763322 247.951136 179.333131 247.951136 179.927191 
C 247.951136 180.521251 248.187159 181.09106 248.607223 181.511123 
C 249.027286 181.931187 249.597095 182.167209 250.191155 182.167209 
z
" style="fill:#33638d;stroke:#33638d;"/>
    <path clip-path="url(#p6914166761)" d="M 373.581818 139.229463 
C 373.980171 139.229463 374.362262 139.071196 374.64394 138.789518 
C 374.925619 138.507839 375.083886 138.125748 375.083886 137.727395 
C 375.083886 137.329042 374.925619 136.946951 374.64394 136.665273 
C 374.362262 136.383595 373.980171 136.225328 373.581818 136.225328 
C 373.183465 136.225328 372.801374 136.383595 372.519696 136.665273 
C 372.238018 136.946951 372.07975 137.329042 372.07975 137.727395 
C 372.07975 138.125748 372.238018 138.507839 372.519696 138.789518 
C 372.801374 139.071196 373.183465 139.229463 373.581818 139.229463 
z
" style="fill:#eae51a;stroke:#eae51a;"/>
    <path clip-path="url(#p6914166761)" d="M 69.218182 237.591579 
C 69.785277 237.591579 70.329221 237.36627 70.730217 236.965274 
C 71.131214 236.564277 71.356523 236.020333 71.356523 235.453238 
C 71.356523 234.886143 71.131214 234.342199 70.730217 233.941202 
C 70.329221 233.540206 69.785277 233.314897 69.218182 233.314897 
C 68.651087 233.314897 68.107143 233.540206 67.706146 233.941202 
C 67.30515 234.342199 67.079841 234.886143 67.079841 235.453238 
C 67.079841 236.020333 67.30515 236.564277 67.706146 236.965274 
C 68.107143 237.36627 68.651087 237.591579 69.218182 237.591579 
z
" style="fill:#24878e;stroke:#24878e;"/>
    <path clip-path="url(#p6914166761)" d="M 200.834889 230.840056 
C 201.378541 230.840056 201.899999 230.624061 202.284419 230.239642 
C 202.668838 229.855222 202.884833 229.333764 202.884833 228.790112 
C 202.884833 228.246461 202.668838 227.725003 202.284419 227.340583 
C 201.899999 226.956163 201.378541 226.740168 200.834889 226.740168 
C 200.291238 226.740168 199.76978 226.956163 199.38536 227.340583 
C 199.00094 227.725003 198.784945 228.246461 198.784945 228.790112 
C 198.784945 229.333764 199.00094 229.855222 199.38536 230.239642 
C 199.76978 230.624061 200.291238 230.840056 200.834889 230.840056 
z
" style="fill:#63cb5f;stroke:#63cb5f;"/>
    <path clip-path="url(#p6914166761)" d="M 311.886486 66.439458 
C 312.418602 66.439458 312.928995 66.228047 313.305257 65.851784 
C 313.68152 65.475522 313.892932 64.965129 313.892932 64.433013 
C 313.892932 63.900898 313.68152 63.390505 313.305257 63.014242 
C 312.928995 62.63798 312.418602 62.426568 311.886486 62.426568 
C 311.354371 62.426568 310.843978 62.63798 310.467716 63.014242 
C 310.091453 63.390505 309.880041 63.900898 309.880041 64.433013 
C 309.880041 64.965129 310.091453 65.475522 310.467716 65.851784 
C 310.843978 66.228047 311.354371 66.439458 311.886486 66.439458 
z
" style="fill:#472f7d;stroke:#472f7d;"/>
    <path clip-path="url(#p6914166761)" d="M 172.043735 213.250382 
C 172.634767 213.250382 173.201673 213.015562 173.619596 212.597639 
C 174.037519 212.179715 174.272339 211.61281 174.272339 211.021777 
C 174.272339 210.430745 174.037519 209.863839 173.619596 209.445916 
C 173.201673 209.027993 172.634767 208.793173 172.043735 208.793173 
C 171.452702 208.793173 170.885797 209.027993 170.467873 209.445916 
C 170.04995 209.863839 169.81513 210.430745 169.81513 211.021777 
C 169.81513 211.61281 170.04995 212.179715 170.467873 212.597639 
C 170.885797 213.015562 171.452702 213.250382 172.043735 213.250382 
z
" style="fill:#c8e020;stroke:#c8e020;"/>
    <path clip-path="url(#p6914166761)" d="M 307.773464 153.225618 
C 308.349478 153.225618 308.901977 152.996765 309.30928 152.589462 
C 309.716583 152.182159 309.945436 151.62966 309.945436 151.053647 
C 309.945436 150.477633 309.716583 149.925134 309.30928 149.517831 
C 308.901977 149.110528 308.349478 148.881675 307.773464 148.881675 
C 307.197451 148.881675 306.644952 149.110528 306.237649 149.517831 
C 305.830346 149.925134 305.601493 150.477633 305.601493 151.053647 
C 305.601493 151.62966 305.830346 152.182159 306.237649 152.589462 
C 306.644952 152.996765 307.197451 153.225618 307.773464 153.225618 
z
" style="fill:#c0df25;stroke:#c0df25;"/>
    <path clip-path="url(#p6914166761)" d="M 278.98231 199.06943 
C 279.346673 199.06943 279.696162 198.924666 279.953806 198.667023 
C 280.21145 198.409379 280.356213 198.05989 280.356213 197.695526 
C 280.356213 197.331163 280.21145 196.981673 279.953806 196.72403 
C 279.696162 196.466386 279.346673 196.321623 278.98231 196.321623 
C 278.617946 196.321623 278.268457 196.466386 278.010813 196.72403 
C 277.753169 196.981673 277.608406 197.331163 277.608406 197.695526 
C 277.608406 198.05989 277.753169 198.409379 278.010813 198.667023 
C 278.268457 198.924666 278.617946 199.06943 278.98231 199.06943 
z
" style="fill:#440154;stroke:#440154;"/>
    <path clip-path="url(#p6914166761)" d="M 225.513022 223.842001 
C 225.967849 223.842001 226.404109 223.661296 226.72572 223.339685 
C 227.047332 223.018074 227.228036 222.581814 227.228036 222.126987 
C 227.228036 221.67216 227.047332 221.2359 226.72572 220.914289 
C 226.404109 220.592677 225.967849 220.411973 225.513022 220.411973 
C 225.058195 220.411973 224.621935 220.592677 224.300324 220.914289 
C 223.978713 221.2359 223.798008 221.67216 223.798008 222.126987 
C 223.798008 222.581814 223.978713 223.018074 224.300324 223.339685 
C 224.621935 223.661296 225.058195 223.842001 225.513022 223.842001 
z
" style="fill:#60ca60;stroke:#60ca60;"/>
    <path clip-path="url(#p6914166761)" d="M 221.4 243.646639 
C 221.805834 243.646639 222.1951 243.485399 222.482068 243.198431 
C 222.769036 242.911464 222.930275 242.522197 222.930275 242.116364 
C 222.930275 241.71053 222.769036 241.321264 222.482068 241.034296 
C 222.1951 240.747328 221.805834 240.586089 221.4 240.586089 
C 220.994166 240.586089 220.6049 240.747328 220.317932 241.034296 
C 220.030964 241.321264 219.869725 241.71053 219.869725 242.116364 
C 219.869725 242.522197 220.030964 242.911464 220.317932 243.198431 
C 220.6049 243.485399 220.994166 243.646639 221.4 243.646639 
z
" style="fill:#6ccd5a;stroke:#6ccd5a;"/>
    <path clip-path="url(#p6914166761)" d="M 328.338575 112.860622 
C 328.812156 112.860622 329.266404 112.672466 329.601276 112.337594 
C 329.936148 112.002722 330.124304 111.548474 330.124304 111.074893 
C 330.124304 110.601312 329.936148 110.147064 329.601276 109.812192 
C 329.266404 109.477319 328.812156 109.289164 328.338575 109.289164 
C 327.864994 109.289164 327.410746 109.477319 327.075874 109.812192 
C 326.741002 110.147064 326.552846 110.601312 326.552846 111.074893 
C 326.552846 111.548474 326.741002 112.002722 327.075874 112.337594 
C 327.410746 112.672466 327.864994 112.860622 328.338575 112.860622 
z
" style="fill:#31678e;stroke:#31678e;"/>
    <path clip-path="url(#p6914166761)" d="M 126.800491 204.111737 
C 127.324036 204.111737 127.826208 203.90373 128.19641 203.533528 
C 128.566612 203.163326 128.774618 202.661154 128.774618 202.13761 
C 128.774618 201.614065 128.566612 201.111893 128.19641 200.741691 
C 127.826208 200.371489 127.324036 200.163483 126.800491 200.163483 
C 126.276947 200.163483 125.774775 200.371489 125.404573 200.741691 
C 125.034371 201.111893 124.826364 201.614065 124.826364 202.13761 
C 124.826364 202.661154 125.034371 203.163326 125.404573 203.533528 
C 125.774775 203.90373 126.276947 204.111737 126.800491 204.111737 
z
" style="fill:#34618d;stroke:#34618d;"/>
    <path clip-path="url(#p6914166761)" d="M 241.965111 199.331472 
C 242.398969 199.331472 242.815115 199.159099 243.121899 198.852315 
C 243.428683 198.545531 243.601057 198.129384 243.601057 197.695526 
C 243.601057 197.261668 243.428683 196.845521 243.121899 196.538737 
C 242.815115 196.231953 242.398969 196.05958 241.965111 196.05958 
C 241.531252 196.05958 241.115106 196.231953 240.808322 196.538737 
C 240.501538 196.845521 240.329164 197.261668 240.329164 197.695526 
C 240.329164 198.129384 240.501538 198.545531 240.808322 198.852315 
C 241.115106 199.159099 241.531252 199.331472 241.965111 199.331472 
z
" style="fill:#3dbc74;stroke:#3dbc74;"/>
   </g>
   <g id="matplotlib.axis_1">
    <g id="xtick_1">
     <g id="line2d_1">
      <defs>
       <path d="M 0 0 
L 0 3.5 
" id="m0b1e9806fe" style="stroke:#000000;stroke-width:0.8;"/>
      </defs>
      <g>
       <use style="stroke:#000000;stroke-width:0.8;" x="77.444226" xlink:href="#m0b1e9806fe" y="252"/>
      </g>
     </g>
     <g id="text_1">
      <!-- 15 -->
      <g transform="translate(71.081726 266.598437)scale(0.1 -0.1)">
       <defs>
        <path d="M 794 531 
L 1825 531 
L 1825 4091 
L 703 3866 
L 703 4441 
L 1819 4666 
L 2450 4666 
L 2450 531 
L 3481 531 
L 3481 0 
L 794 0 
L 794 531 
z
" id="DejaVuSans-31" transform="scale(0.015625)"/>
        <path d="M 691 4666 
L 3169 4666 
L 3169 4134 
L 1269 4134 
L 1269 2991 
Q 1406 3038 1543 3061 
Q 1681 3084 1819 3084 
Q 2600 3084 3056 2656 
Q 3513 2228 3513 1497 
Q 3513 744 3044 326 
Q 2575 -91 1722 -91 
Q 1428 -91 1123 -41 
Q 819 9 494 109 
L 494 744 
Q 775 591 1075 516 
Q 1375 441 1709 441 
Q 2250 441 2565 725 
Q 2881 1009 2881 1497 
Q 2881 1984 2565 2268 
Q 2250 2553 1709 2553 
Q 1456 2553 1204 2497 
Q 953 2441 691 2322 
L 691 4666 
z
" id="DejaVuSans-35" transform="scale(0.015625)"/>
       </defs>
       <use xlink:href="#DejaVuSans-31"/>
       <use x="63.623047" xlink:href="#DejaVuSans-35"/>
      </g>
     </g>
    </g>
    <g id="xtick_2">
     <g id="line2d_2">
      <g>
       <use style="stroke:#000000;stroke-width:0.8;" x="118.574447" xlink:href="#m0b1e9806fe" y="252"/>
      </g>
     </g>
     <g id="text_2">
      <!-- 16 -->
      <g transform="translate(112.211947 266.598437)scale(0.1 -0.1)">
       <defs>
        <path d="M 2113 2584 
Q 1688 2584 1439 2293 
Q 1191 2003 1191 1497 
Q 1191 994 1439 701 
Q 1688 409 2113 409 
Q 2538 409 2786 701 
Q 3034 994 3034 1497 
Q 3034 2003 2786 2293 
Q 2538 2584 2113 2584 
z
M 3366 4563 
L 3366 3988 
Q 3128 4100 2886 4159 
Q 2644 4219 2406 4219 
Q 1781 4219 1451 3797 
Q 1122 3375 1075 2522 
Q 1259 2794 1537 2939 
Q 1816 3084 2150 3084 
Q 2853 3084 3261 2657 
Q 3669 2231 3669 1497 
Q 3669 778 3244 343 
Q 2819 -91 2113 -91 
Q 1303 -91 875 529 
Q 447 1150 447 2328 
Q 447 3434 972 4092 
Q 1497 4750 2381 4750 
Q 2619 4750 2861 4703 
Q 3103 4656 3366 4563 
z
" id="DejaVuSans-36" transform="scale(0.015625)"/>
       </defs>
       <use xlink:href="#DejaVuSans-31"/>
       <use x="63.623047" xlink:href="#DejaVuSans-36"/>
      </g>
     </g>
    </g>
    <g id="xtick_3">
     <g id="line2d_3">
      <g>
       <use style="stroke:#000000;stroke-width:0.8;" x="159.704668" xlink:href="#m0b1e9806fe" y="252"/>
      </g>
     </g>
     <g id="text_3">
      <!-- 17 -->
      <g transform="translate(153.342168 266.598437)scale(0.1 -0.1)">
       <defs>
        <path d="M 525 4666 
L 3525 4666 
L 3525 4397 
L 1831 0 
L 1172 0 
L 2766 4134 
L 525 4134 
L 525 4666 
z
" id="DejaVuSans-37" transform="scale(0.015625)"/>
       </defs>
       <use xlink:href="#DejaVuSans-31"/>
       <use x="63.623047" xlink:href="#DejaVuSans-37"/>
      </g>
     </g>
    </g>
    <g id="xtick_4">
     <g id="line2d_4">
      <g>
       <use style="stroke:#000000;stroke-width:0.8;" x="200.834889" xlink:href="#m0b1e9806fe" y="252"/>
      </g>
     </g>
     <g id="text_4">
      <!-- 18 -->
      <g transform="translate(194.472389 266.598437)scale(0.1 -0.1)">
       <defs>
        <path d="M 2034 2216 
Q 1584 2216 1326 1975 
Q 1069 1734 1069 1313 
Q 1069 891 1326 650 
Q 1584 409 2034 409 
Q 2484 409 2743 651 
Q 3003 894 3003 1313 
Q 3003 1734 2745 1975 
Q 2488 2216 2034 2216 
z
M 1403 2484 
Q 997 2584 770 2862 
Q 544 3141 544 3541 
Q 544 4100 942 4425 
Q 1341 4750 2034 4750 
Q 2731 4750 3128 4425 
Q 3525 4100 3525 3541 
Q 3525 3141 3298 2862 
Q 3072 2584 2669 2484 
Q 3125 2378 3379 2068 
Q 3634 1759 3634 1313 
Q 3634 634 3220 271 
Q 2806 -91 2034 -91 
Q 1263 -91 848 271 
Q 434 634 434 1313 
Q 434 1759 690 2068 
Q 947 2378 1403 2484 
z
M 1172 3481 
Q 1172 3119 1398 2916 
Q 1625 2713 2034 2713 
Q 2441 2713 2670 2916 
Q 2900 3119 2900 3481 
Q 2900 3844 2670 4047 
Q 2441 4250 2034 4250 
Q 1625 4250 1398 4047 
Q 1172 3844 1172 3481 
z
" id="DejaVuSans-38" transform="scale(0.015625)"/>
       </defs>
       <use xlink:href="#DejaVuSans-31"/>
       <use x="63.623047" xlink:href="#DejaVuSans-38"/>
      </g>
     </g>
    </g>
    <g id="xtick_5">
     <g id="line2d_5">
      <g>
       <use style="stroke:#000000;stroke-width:0.8;" x="241.965111" xlink:href="#m0b1e9806fe" y="252"/>
      </g>
     </g>
     <g id="text_5">
      <!-- 19 -->
      <g transform="translate(235.602611 266.598437)scale(0.1 -0.1)">
       <defs>
        <path d="M 703 97 
L 703 672 
Q 941 559 1184 500 
Q 1428 441 1663 441 
Q 2288 441 2617 861 
Q 2947 1281 2994 2138 
Q 2813 1869 2534 1725 
Q 2256 1581 1919 1581 
Q 1219 1581 811 2004 
Q 403 2428 403 3163 
Q 403 3881 828 4315 
Q 1253 4750 1959 4750 
Q 2769 4750 3195 4129 
Q 3622 3509 3622 2328 
Q 3622 1225 3098 567 
Q 2575 -91 1691 -91 
Q 1453 -91 1209 -44 
Q 966 3 703 97 
z
M 1959 2075 
Q 2384 2075 2632 2365 
Q 2881 2656 2881 3163 
Q 2881 3666 2632 3958 
Q 2384 4250 1959 4250 
Q 1534 4250 1286 3958 
Q 1038 3666 1038 3163 
Q 1038 2656 1286 2365 
Q 1534 2075 1959 2075 
z
" id="DejaVuSans-39" transform="scale(0.015625)"/>
       </defs>
       <use xlink:href="#DejaVuSans-31"/>
       <use x="63.623047" xlink:href="#DejaVuSans-39"/>
      </g>
     </g>
    </g>
    <g id="xtick_6">
     <g id="line2d_6">
      <g>
       <use style="stroke:#000000;stroke-width:0.8;" x="283.095332" xlink:href="#m0b1e9806fe" y="252"/>
      </g>
     </g>
     <g id="text_6">
      <!-- 20 -->
      <g transform="translate(276.732832 266.598437)scale(0.1 -0.1)">
       <defs>
        <path d="M 1228 531 
L 3431 531 
L 3431 0 
L 469 0 
L 469 531 
Q 828 903 1448 1529 
Q 2069 2156 2228 2338 
Q 2531 2678 2651 2914 
Q 2772 3150 2772 3378 
Q 2772 3750 2511 3984 
Q 2250 4219 1831 4219 
Q 1534 4219 1204 4116 
Q 875 4013 500 3803 
L 500 4441 
Q 881 4594 1212 4672 
Q 1544 4750 1819 4750 
Q 2544 4750 2975 4387 
Q 3406 4025 3406 3419 
Q 3406 3131 3298 2873 
Q 3191 2616 2906 2266 
Q 2828 2175 2409 1742 
Q 1991 1309 1228 531 
z
" id="DejaVuSans-32" transform="scale(0.015625)"/>
        <path d="M 2034 4250 
Q 1547 4250 1301 3770 
Q 1056 3291 1056 2328 
Q 1056 1369 1301 889 
Q 1547 409 2034 409 
Q 2525 409 2770 889 
Q 3016 1369 3016 2328 
Q 3016 3291 2770 3770 
Q 2525 4250 2034 4250 
z
M 2034 4750 
Q 2819 4750 3233 4129 
Q 3647 3509 3647 2328 
Q 3647 1150 3233 529 
Q 2819 -91 2034 -91 
Q 1250 -91 836 529 
Q 422 1150 422 2328 
Q 422 3509 836 4129 
Q 1250 4750 2034 4750 
z
" id="DejaVuSans-30" transform="scale(0.015625)"/>
       </defs>
       <use xlink:href="#DejaVuSans-32"/>
       <use x="63.623047" xlink:href="#DejaVuSans-30"/>
      </g>
     </g>
    </g>
    <g id="xtick_7">
     <g id="line2d_7">
      <g>
       <use style="stroke:#000000;stroke-width:0.8;" x="324.225553" xlink:href="#m0b1e9806fe" y="252"/>
      </g>
     </g>
     <g id="text_7">
      <!-- 21 -->
      <g transform="translate(317.863053 266.598437)scale(0.1 -0.1)">
       <use xlink:href="#DejaVuSans-32"/>
       <use x="63.623047" xlink:href="#DejaVuSans-31"/>
      </g>
     </g>
    </g>
    <g id="xtick_8">
     <g id="line2d_8">
      <g>
       <use style="stroke:#000000;stroke-width:0.8;" x="365.355774" xlink:href="#m0b1e9806fe" y="252"/>
      </g>
     </g>
     <g id="text_8">
      <!-- 22 -->
      <g transform="translate(358.993274 266.598437)scale(0.1 -0.1)">
       <use xlink:href="#DejaVuSans-32"/>
       <use x="63.623047" xlink:href="#DejaVuSans-32"/>
      </g>
     </g>
    </g>
   </g>
   <g id="matplotlib.axis_2">
    <g id="ytick_1">
     <g id="line2d_9">
      <defs>
       <path d="M 0 0 
L -3.5 0 
" id="mfb2bc2135e" style="stroke:#000000;stroke-width:0.8;"/>
      </defs>
      <g>
       <use style="stroke:#000000;stroke-width:0.8;" x="54" xlink:href="#mfb2bc2135e" y="246.558447"/>
      </g>
     </g>
     <g id="text_9">
      <!-- 24 -->
      <g transform="translate(34.275 250.357666)scale(0.1 -0.1)">
       <defs>
        <path d="M 2419 4116 
L 825 1625 
L 2419 1625 
L 2419 4116 
z
M 2253 4666 
L 3047 4666 
L 3047 1625 
L 3713 1625 
L 3713 1100 
L 3047 1100 
L 3047 0 
L 2419 0 
L 2419 1100 
L 313 1100 
L 313 1709 
L 2253 4666 
z
" id="DejaVuSans-34" transform="scale(0.015625)"/>
       </defs>
       <use xlink:href="#DejaVuSans-32"/>
       <use x="63.623047" xlink:href="#DejaVuSans-34"/>
      </g>
     </g>
    </g>
    <g id="ytick_2">
     <g id="line2d_10">
      <g>
       <use style="stroke:#000000;stroke-width:0.8;" x="54" xlink:href="#mfb2bc2135e" y="202.13761"/>
      </g>
     </g>
     <g id="text_10">
      <!-- 26 -->
      <g transform="translate(34.275 205.936829)scale(0.1 -0.1)">
       <use xlink:href="#DejaVuSans-32"/>
       <use x="63.623047" xlink:href="#DejaVuSans-36"/>
      </g>
     </g>
    </g>
    <g id="ytick_3">
     <g id="line2d_11">
      <g>
       <use style="stroke:#000000;stroke-width:0.8;" x="54" xlink:href="#mfb2bc2135e" y="157.716772"/>
      </g>
     </g>
     <g id="text_11">
      <!-- 28 -->
      <g transform="translate(34.275 161.515991)scale(0.1 -0.1)">
       <use xlink:href="#DejaVuSans-32"/>
       <use x="63.623047" xlink:href="#DejaVuSans-38"/>
      </g>
     </g>
    </g>
    <g id="ytick_4">
     <g id="line2d_12">
      <g>
       <use style="stroke:#000000;stroke-width:0.8;" x="54" xlink:href="#mfb2bc2135e" y="113.295935"/>
      </g>
     </g>
     <g id="text_12">
      <!-- 30 -->
      <g transform="translate(34.275 117.095153)scale(0.1 -0.1)">
       <defs>
        <path d="M 2597 2516 
Q 3050 2419 3304 2112 
Q 3559 1806 3559 1356 
Q 3559 666 3084 287 
Q 2609 -91 1734 -91 
Q 1441 -91 1130 -33 
Q 819 25 488 141 
L 488 750 
Q 750 597 1062 519 
Q 1375 441 1716 441 
Q 2309 441 2620 675 
Q 2931 909 2931 1356 
Q 2931 1769 2642 2001 
Q 2353 2234 1838 2234 
L 1294 2234 
L 1294 2753 
L 1863 2753 
Q 2328 2753 2575 2939 
Q 2822 3125 2822 3475 
Q 2822 3834 2567 4026 
Q 2313 4219 1838 4219 
Q 1578 4219 1281 4162 
Q 984 4106 628 3988 
L 628 4550 
Q 988 4650 1302 4700 
Q 1616 4750 1894 4750 
Q 2613 4750 3031 4423 
Q 3450 4097 3450 3541 
Q 3450 3153 3228 2886 
Q 3006 2619 2597 2516 
z
" id="DejaVuSans-33" transform="scale(0.015625)"/>
       </defs>
       <use xlink:href="#DejaVuSans-33"/>
       <use x="63.623047" xlink:href="#DejaVuSans-30"/>
      </g>
     </g>
    </g>
    <g id="ytick_5">
     <g id="line2d_13">
      <g>
       <use style="stroke:#000000;stroke-width:0.8;" x="54" xlink:href="#mfb2bc2135e" y="68.875097"/>
      </g>
     </g>
     <g id="text_13">
      <!-- 32 -->
      <g transform="translate(34.275 72.674316)scale(0.1 -0.1)">
       <use xlink:href="#DejaVuSans-33"/>
       <use x="63.623047" xlink:href="#DejaVuSans-32"/>
      </g>
     </g>
    </g>
   </g>
   <g id="patch_3">
    <path d="M 54 252 
L 54 34.56 
" style="fill:none;stroke:#000000;stroke-linecap:square;stroke-linejoin:miter;stroke-width:0.8;"/>
   </g>
   <g id="patch_4">
    <path d="M 388.8 252 
L 388.8 34.56 
" style="fill:none;stroke:#000000;stroke-linecap:square;stroke-linejoin:miter;stroke-width:0.8;"/>
   </g>
   <g id="patch_5">
    <path d="M 54 252 
L 388.8 252 
" style="fill:none;stroke:#000000;stroke-linecap:square;stroke-linejoin:miter;stroke-width:0.8;"/>
   </g>
   <g id="patch_6">
    <path d="M 54 34.56 
L 388.8 34.56 
" style="fill:none;stroke:#000000;stroke-linecap:square;stroke-linejoin:miter;stroke-width:0.8;"/>
   </g>
   <g id="text_14">
    <!-- Giannis Antetokounmpo -->
    <g transform="translate(295.434398 88.864474)scale(0.05 -0.05)">
     <defs>
      <path d="M 3809 666 
L 3809 1919 
L 2778 1919 
L 2778 2438 
L 4434 2438 
L 4434 434 
Q 4069 175 3628 42 
Q 3188 -91 2688 -91 
Q 1594 -91 976 548 
Q 359 1188 359 2328 
Q 359 3472 976 4111 
Q 1594 4750 2688 4750 
Q 3144 4750 3555 4637 
Q 3966 4525 4313 4306 
L 4313 3634 
Q 3963 3931 3569 4081 
Q 3175 4231 2741 4231 
Q 1884 4231 1454 3753 
Q 1025 3275 1025 2328 
Q 1025 1384 1454 906 
Q 1884 428 2741 428 
Q 3075 428 3337 486 
Q 3600 544 3809 666 
z
" id="DejaVuSans-47" transform="scale(0.015625)"/>
      <path d="M 603 3500 
L 1178 3500 
L 1178 0 
L 603 0 
L 603 3500 
z
M 603 4863 
L 1178 4863 
L 1178 4134 
L 603 4134 
L 603 4863 
z
" id="DejaVuSans-69" transform="scale(0.015625)"/>
      <path d="M 2194 1759 
Q 1497 1759 1228 1600 
Q 959 1441 959 1056 
Q 959 750 1161 570 
Q 1363 391 1709 391 
Q 2188 391 2477 730 
Q 2766 1069 2766 1631 
L 2766 1759 
L 2194 1759 
z
M 3341 1997 
L 3341 0 
L 2766 0 
L 2766 531 
Q 2569 213 2275 61 
Q 1981 -91 1556 -91 
Q 1019 -91 701 211 
Q 384 513 384 1019 
Q 384 1609 779 1909 
Q 1175 2209 1959 2209 
L 2766 2209 
L 2766 2266 
Q 2766 2663 2505 2880 
Q 2244 3097 1772 3097 
Q 1472 3097 1187 3025 
Q 903 2953 641 2809 
L 641 3341 
Q 956 3463 1253 3523 
Q 1550 3584 1831 3584 
Q 2591 3584 2966 3190 
Q 3341 2797 3341 1997 
z
" id="DejaVuSans-61" transform="scale(0.015625)"/>
      <path d="M 3513 2113 
L 3513 0 
L 2938 0 
L 2938 2094 
Q 2938 2591 2744 2837 
Q 2550 3084 2163 3084 
Q 1697 3084 1428 2787 
Q 1159 2491 1159 1978 
L 1159 0 
L 581 0 
L 581 3500 
L 1159 3500 
L 1159 2956 
Q 1366 3272 1645 3428 
Q 1925 3584 2291 3584 
Q 2894 3584 3203 3211 
Q 3513 2838 3513 2113 
z
" id="DejaVuSans-6e" transform="scale(0.015625)"/>
      <path d="M 2834 3397 
L 2834 2853 
Q 2591 2978 2328 3040 
Q 2066 3103 1784 3103 
Q 1356 3103 1142 2972 
Q 928 2841 928 2578 
Q 928 2378 1081 2264 
Q 1234 2150 1697 2047 
L 1894 2003 
Q 2506 1872 2764 1633 
Q 3022 1394 3022 966 
Q 3022 478 2636 193 
Q 2250 -91 1575 -91 
Q 1294 -91 989 -36 
Q 684 19 347 128 
L 347 722 
Q 666 556 975 473 
Q 1284 391 1588 391 
Q 1994 391 2212 530 
Q 2431 669 2431 922 
Q 2431 1156 2273 1281 
Q 2116 1406 1581 1522 
L 1381 1569 
Q 847 1681 609 1914 
Q 372 2147 372 2553 
Q 372 3047 722 3315 
Q 1072 3584 1716 3584 
Q 2034 3584 2315 3537 
Q 2597 3491 2834 3397 
z
" id="DejaVuSans-73" transform="scale(0.015625)"/>
      <path id="DejaVuSans-20" transform="scale(0.015625)"/>
      <path d="M 2188 4044 
L 1331 1722 
L 3047 1722 
L 2188 4044 
z
M 1831 4666 
L 2547 4666 
L 4325 0 
L 3669 0 
L 3244 1197 
L 1141 1197 
L 716 0 
L 50 0 
L 1831 4666 
z
" id="DejaVuSans-41" transform="scale(0.015625)"/>
      <path d="M 1172 4494 
L 1172 3500 
L 2356 3500 
L 2356 3053 
L 1172 3053 
L 1172 1153 
Q 1172 725 1289 603 
Q 1406 481 1766 481 
L 2356 481 
L 2356 0 
L 1766 0 
Q 1100 0 847 248 
Q 594 497 594 1153 
L 594 3053 
L 172 3053 
L 172 3500 
L 594 3500 
L 594 4494 
L 1172 4494 
z
" id="DejaVuSans-74" transform="scale(0.015625)"/>
      <path d="M 3597 1894 
L 3597 1613 
L 953 1613 
Q 991 1019 1311 708 
Q 1631 397 2203 397 
Q 2534 397 2845 478 
Q 3156 559 3463 722 
L 3463 178 
Q 3153 47 2828 -22 
Q 2503 -91 2169 -91 
Q 1331 -91 842 396 
Q 353 884 353 1716 
Q 353 2575 817 3079 
Q 1281 3584 2069 3584 
Q 2775 3584 3186 3129 
Q 3597 2675 3597 1894 
z
M 3022 2063 
Q 3016 2534 2758 2815 
Q 2500 3097 2075 3097 
Q 1594 3097 1305 2825 
Q 1016 2553 972 2059 
L 3022 2063 
z
" id="DejaVuSans-65" transform="scale(0.015625)"/>
      <path d="M 1959 3097 
Q 1497 3097 1228 2736 
Q 959 2375 959 1747 
Q 959 1119 1226 758 
Q 1494 397 1959 397 
Q 2419 397 2687 759 
Q 2956 1122 2956 1747 
Q 2956 2369 2687 2733 
Q 2419 3097 1959 3097 
z
M 1959 3584 
Q 2709 3584 3137 3096 
Q 3566 2609 3566 1747 
Q 3566 888 3137 398 
Q 2709 -91 1959 -91 
Q 1206 -91 779 398 
Q 353 888 353 1747 
Q 353 2609 779 3096 
Q 1206 3584 1959 3584 
z
" id="DejaVuSans-6f" transform="scale(0.015625)"/>
      <path d="M 581 4863 
L 1159 4863 
L 1159 1991 
L 2875 3500 
L 3609 3500 
L 1753 1863 
L 3688 0 
L 2938 0 
L 1159 1709 
L 1159 0 
L 581 0 
L 581 4863 
z
" id="DejaVuSans-6b" transform="scale(0.015625)"/>
      <path d="M 544 1381 
L 544 3500 
L 1119 3500 
L 1119 1403 
Q 1119 906 1312 657 
Q 1506 409 1894 409 
Q 2359 409 2629 706 
Q 2900 1003 2900 1516 
L 2900 3500 
L 3475 3500 
L 3475 0 
L 2900 0 
L 2900 538 
Q 2691 219 2414 64 
Q 2138 -91 1772 -91 
Q 1169 -91 856 284 
Q 544 659 544 1381 
z
M 1991 3584 
L 1991 3584 
z
" id="DejaVuSans-75" transform="scale(0.015625)"/>
      <path d="M 3328 2828 
Q 3544 3216 3844 3400 
Q 4144 3584 4550 3584 
Q 5097 3584 5394 3201 
Q 5691 2819 5691 2113 
L 5691 0 
L 5113 0 
L 5113 2094 
Q 5113 2597 4934 2840 
Q 4756 3084 4391 3084 
Q 3944 3084 3684 2787 
Q 3425 2491 3425 1978 
L 3425 0 
L 2847 0 
L 2847 2094 
Q 2847 2600 2669 2842 
Q 2491 3084 2119 3084 
Q 1678 3084 1418 2786 
Q 1159 2488 1159 1978 
L 1159 0 
L 581 0 
L 581 3500 
L 1159 3500 
L 1159 2956 
Q 1356 3278 1631 3431 
Q 1906 3584 2284 3584 
Q 2666 3584 2933 3390 
Q 3200 3197 3328 2828 
z
" id="DejaVuSans-6d" transform="scale(0.015625)"/>
      <path d="M 1159 525 
L 1159 -1331 
L 581 -1331 
L 581 3500 
L 1159 3500 
L 1159 2969 
Q 1341 3281 1617 3432 
Q 1894 3584 2278 3584 
Q 2916 3584 3314 3078 
Q 3713 2572 3713 1747 
Q 3713 922 3314 415 
Q 2916 -91 2278 -91 
Q 1894 -91 1617 61 
Q 1341 213 1159 525 
z
M 3116 1747 
Q 3116 2381 2855 2742 
Q 2594 3103 2138 3103 
Q 1681 3103 1420 2742 
Q 1159 2381 1159 1747 
Q 1159 1113 1420 752 
Q 1681 391 2138 391 
Q 2594 391 2855 752 
Q 3116 1113 3116 1747 
z
" id="DejaVuSans-70" transform="scale(0.015625)"/>
     </defs>
     <use xlink:href="#DejaVuSans-47"/>
     <use x="77.490234" xlink:href="#DejaVuSans-69"/>
     <use x="105.273438" xlink:href="#DejaVuSans-61"/>
     <use x="166.552734" xlink:href="#DejaVuSans-6e"/>
     <use x="229.931641" xlink:href="#DejaVuSans-6e"/>
     <use x="293.310547" xlink:href="#DejaVuSans-69"/>
     <use x="321.09375" xlink:href="#DejaVuSans-73"/>
     <use x="373.193359" xlink:href="#DejaVuSans-20"/>
     <use x="404.980469" xlink:href="#DejaVuSans-41"/>
     <use x="473.388672" xlink:href="#DejaVuSans-6e"/>
     <use x="536.767578" xlink:href="#DejaVuSans-74"/>
     <use x="575.976562" xlink:href="#DejaVuSans-65"/>
     <use x="637.5" xlink:href="#DejaVuSans-74"/>
     <use x="676.708984" xlink:href="#DejaVuSans-6f"/>
     <use x="737.890625" xlink:href="#DejaVuSans-6b"/>
     <use x="792.175781" xlink:href="#DejaVuSans-6f"/>
     <use x="853.357422" xlink:href="#DejaVuSans-75"/>
     <use x="916.736328" xlink:href="#DejaVuSans-6e"/>
     <use x="980.115234" xlink:href="#DejaVuSans-6d"/>
     <use x="1077.527344" xlink:href="#DejaVuSans-70"/>
     <use x="1141.003906" xlink:href="#DejaVuSans-6f"/>
    </g>
   </g>
   <g id="text_15">
    <!-- Devin Booker -->
    <g transform="translate(287.208354 162.158856)scale(0.05 -0.05)">
     <defs>
      <path d="M 1259 4147 
L 1259 519 
L 2022 519 
Q 2988 519 3436 956 
Q 3884 1394 3884 2338 
Q 3884 3275 3436 3711 
Q 2988 4147 2022 4147 
L 1259 4147 
z
M 628 4666 
L 1925 4666 
Q 3281 4666 3915 4102 
Q 4550 3538 4550 2338 
Q 4550 1131 3912 565 
Q 3275 0 1925 0 
L 628 0 
L 628 4666 
z
" id="DejaVuSans-44" transform="scale(0.015625)"/>
      <path d="M 191 3500 
L 800 3500 
L 1894 563 
L 2988 3500 
L 3597 3500 
L 2284 0 
L 1503 0 
L 191 3500 
z
" id="DejaVuSans-76" transform="scale(0.015625)"/>
      <path d="M 1259 2228 
L 1259 519 
L 2272 519 
Q 2781 519 3026 730 
Q 3272 941 3272 1375 
Q 3272 1813 3026 2020 
Q 2781 2228 2272 2228 
L 1259 2228 
z
M 1259 4147 
L 1259 2741 
L 2194 2741 
Q 2656 2741 2882 2914 
Q 3109 3088 3109 3444 
Q 3109 3797 2882 3972 
Q 2656 4147 2194 4147 
L 1259 4147 
z
M 628 4666 
L 2241 4666 
Q 2963 4666 3353 4366 
Q 3744 4066 3744 3513 
Q 3744 3084 3544 2831 
Q 3344 2578 2956 2516 
Q 3422 2416 3680 2098 
Q 3938 1781 3938 1306 
Q 3938 681 3513 340 
Q 3088 0 2303 0 
L 628 0 
L 628 4666 
z
" id="DejaVuSans-42" transform="scale(0.015625)"/>
      <path d="M 2631 2963 
Q 2534 3019 2420 3045 
Q 2306 3072 2169 3072 
Q 1681 3072 1420 2755 
Q 1159 2438 1159 1844 
L 1159 0 
L 581 0 
L 581 3500 
L 1159 3500 
L 1159 2956 
Q 1341 3275 1631 3429 
Q 1922 3584 2338 3584 
Q 2397 3584 2469 3576 
Q 2541 3569 2628 3553 
L 2631 2963 
z
" id="DejaVuSans-72" transform="scale(0.015625)"/>
     </defs>
     <use xlink:href="#DejaVuSans-44"/>
     <use x="77.001953" xlink:href="#DejaVuSans-65"/>
     <use x="138.525391" xlink:href="#DejaVuSans-76"/>
     <use x="197.705078" xlink:href="#DejaVuSans-69"/>
     <use x="225.488281" xlink:href="#DejaVuSans-6e"/>
     <use x="288.867188" xlink:href="#DejaVuSans-20"/>
     <use x="320.654297" xlink:href="#DejaVuSans-42"/>
     <use x="389.257812" xlink:href="#DejaVuSans-6f"/>
     <use x="450.439453" xlink:href="#DejaVuSans-6f"/>
     <use x="511.621094" xlink:href="#DejaVuSans-6b"/>
     <use x="565.90625" xlink:href="#DejaVuSans-65"/>
     <use x="627.429688" xlink:href="#DejaVuSans-72"/>
    </g>
   </g>
   <g id="text_16">
    <!-- Mikal Bridges -->
    <g transform="translate(225.513022 199.916568)scale(0.05 -0.05)">
     <defs>
      <path d="M 628 4666 
L 1569 4666 
L 2759 1491 
L 3956 4666 
L 4897 4666 
L 4897 0 
L 4281 0 
L 4281 4097 
L 3078 897 
L 2444 897 
L 1241 4097 
L 1241 0 
L 628 0 
L 628 4666 
z
" id="DejaVuSans-4d" transform="scale(0.015625)"/>
      <path d="M 603 4863 
L 1178 4863 
L 1178 0 
L 603 0 
L 603 4863 
z
" id="DejaVuSans-6c" transform="scale(0.015625)"/>
      <path d="M 2906 2969 
L 2906 4863 
L 3481 4863 
L 3481 0 
L 2906 0 
L 2906 525 
Q 2725 213 2448 61 
Q 2172 -91 1784 -91 
Q 1150 -91 751 415 
Q 353 922 353 1747 
Q 353 2572 751 3078 
Q 1150 3584 1784 3584 
Q 2172 3584 2448 3432 
Q 2725 3281 2906 2969 
z
M 947 1747 
Q 947 1113 1208 752 
Q 1469 391 1925 391 
Q 2381 391 2643 752 
Q 2906 1113 2906 1747 
Q 2906 2381 2643 2742 
Q 2381 3103 1925 3103 
Q 1469 3103 1208 2742 
Q 947 2381 947 1747 
z
" id="DejaVuSans-64" transform="scale(0.015625)"/>
      <path d="M 2906 1791 
Q 2906 2416 2648 2759 
Q 2391 3103 1925 3103 
Q 1463 3103 1205 2759 
Q 947 2416 947 1791 
Q 947 1169 1205 825 
Q 1463 481 1925 481 
Q 2391 481 2648 825 
Q 2906 1169 2906 1791 
z
M 3481 434 
Q 3481 -459 3084 -895 
Q 2688 -1331 1869 -1331 
Q 1566 -1331 1297 -1286 
Q 1028 -1241 775 -1147 
L 775 -588 
Q 1028 -725 1275 -790 
Q 1522 -856 1778 -856 
Q 2344 -856 2625 -561 
Q 2906 -266 2906 331 
L 2906 616 
Q 2728 306 2450 153 
Q 2172 0 1784 0 
Q 1141 0 747 490 
Q 353 981 353 1791 
Q 353 2603 747 3093 
Q 1141 3584 1784 3584 
Q 2172 3584 2450 3431 
Q 2728 3278 2906 2969 
L 2906 3500 
L 3481 3500 
L 3481 434 
z
" id="DejaVuSans-67" transform="scale(0.015625)"/>
     </defs>
     <use xlink:href="#DejaVuSans-4d"/>
     <use x="86.279297" xlink:href="#DejaVuSans-69"/>
     <use x="114.0625" xlink:href="#DejaVuSans-6b"/>
     <use x="170.222656" xlink:href="#DejaVuSans-61"/>
     <use x="231.501953" xlink:href="#DejaVuSans-6c"/>
     <use x="259.285156" xlink:href="#DejaVuSans-20"/>
     <use x="291.072266" xlink:href="#DejaVuSans-42"/>
     <use x="359.675781" xlink:href="#DejaVuSans-72"/>
     <use x="400.789062" xlink:href="#DejaVuSans-69"/>
     <use x="428.572266" xlink:href="#DejaVuSans-64"/>
     <use x="492.048828" xlink:href="#DejaVuSans-67"/>
     <use x="555.525391" xlink:href="#DejaVuSans-65"/>
     <use x="617.048828" xlink:href="#DejaVuSans-73"/>
    </g>
   </g>
   <g id="text_17">
    <!-- Jaylen Brown -->
    <g transform="translate(307.773464 188.811359)scale(0.05 -0.05)">
     <defs>
      <path d="M 628 4666 
L 1259 4666 
L 1259 325 
Q 1259 -519 939 -900 
Q 619 -1281 -91 -1281 
L -331 -1281 
L -331 -750 
L -134 -750 
Q 284 -750 456 -515 
Q 628 -281 628 325 
L 628 4666 
z
" id="DejaVuSans-4a" transform="scale(0.015625)"/>
      <path d="M 2059 -325 
Q 1816 -950 1584 -1140 
Q 1353 -1331 966 -1331 
L 506 -1331 
L 506 -850 
L 844 -850 
Q 1081 -850 1212 -737 
Q 1344 -625 1503 -206 
L 1606 56 
L 191 3500 
L 800 3500 
L 1894 763 
L 2988 3500 
L 3597 3500 
L 2059 -325 
z
" id="DejaVuSans-79" transform="scale(0.015625)"/>
      <path d="M 269 3500 
L 844 3500 
L 1563 769 
L 2278 3500 
L 2956 3500 
L 3675 769 
L 4391 3500 
L 4966 3500 
L 4050 0 
L 3372 0 
L 2619 2869 
L 1863 0 
L 1184 0 
L 269 3500 
z
" id="DejaVuSans-77" transform="scale(0.015625)"/>
     </defs>
     <use xlink:href="#DejaVuSans-4a"/>
     <use x="29.492188" xlink:href="#DejaVuSans-61"/>
     <use x="90.771484" xlink:href="#DejaVuSans-79"/>
     <use x="149.951172" xlink:href="#DejaVuSans-6c"/>
     <use x="177.734375" xlink:href="#DejaVuSans-65"/>
     <use x="239.257812" xlink:href="#DejaVuSans-6e"/>
     <use x="302.636719" xlink:href="#DejaVuSans-20"/>
     <use x="334.423828" xlink:href="#DejaVuSans-42"/>
     <use x="403.027344" xlink:href="#DejaVuSans-72"/>
     <use x="441.890625" xlink:href="#DejaVuSans-6f"/>
     <use x="503.072266" xlink:href="#DejaVuSans-77"/>
     <use x="584.859375" xlink:href="#DejaVuSans-6e"/>
    </g>
   </g>
   <g id="text_18">
    <!-- Stephen Curry -->
    <g transform="translate(291.321376 126.622186)scale(0.05 -0.05)">
     <defs>
      <path d="M 3425 4513 
L 3425 3897 
Q 3066 4069 2747 4153 
Q 2428 4238 2131 4238 
Q 1616 4238 1336 4038 
Q 1056 3838 1056 3469 
Q 1056 3159 1242 3001 
Q 1428 2844 1947 2747 
L 2328 2669 
Q 3034 2534 3370 2195 
Q 3706 1856 3706 1288 
Q 3706 609 3251 259 
Q 2797 -91 1919 -91 
Q 1588 -91 1214 -16 
Q 841 59 441 206 
L 441 856 
Q 825 641 1194 531 
Q 1563 422 1919 422 
Q 2459 422 2753 634 
Q 3047 847 3047 1241 
Q 3047 1584 2836 1778 
Q 2625 1972 2144 2069 
L 1759 2144 
Q 1053 2284 737 2584 
Q 422 2884 422 3419 
Q 422 4038 858 4394 
Q 1294 4750 2059 4750 
Q 2388 4750 2728 4690 
Q 3069 4631 3425 4513 
z
" id="DejaVuSans-53" transform="scale(0.015625)"/>
      <path d="M 3513 2113 
L 3513 0 
L 2938 0 
L 2938 2094 
Q 2938 2591 2744 2837 
Q 2550 3084 2163 3084 
Q 1697 3084 1428 2787 
Q 1159 2491 1159 1978 
L 1159 0 
L 581 0 
L 581 4863 
L 1159 4863 
L 1159 2956 
Q 1366 3272 1645 3428 
Q 1925 3584 2291 3584 
Q 2894 3584 3203 3211 
Q 3513 2838 3513 2113 
z
" id="DejaVuSans-68" transform="scale(0.015625)"/>
      <path d="M 4122 4306 
L 4122 3641 
Q 3803 3938 3442 4084 
Q 3081 4231 2675 4231 
Q 1875 4231 1450 3742 
Q 1025 3253 1025 2328 
Q 1025 1406 1450 917 
Q 1875 428 2675 428 
Q 3081 428 3442 575 
Q 3803 722 4122 1019 
L 4122 359 
Q 3791 134 3420 21 
Q 3050 -91 2638 -91 
Q 1578 -91 968 557 
Q 359 1206 359 2328 
Q 359 3453 968 4101 
Q 1578 4750 2638 4750 
Q 3056 4750 3426 4639 
Q 3797 4528 4122 4306 
z
" id="DejaVuSans-43" transform="scale(0.015625)"/>
     </defs>
     <use xlink:href="#DejaVuSans-53"/>
     <use x="63.476562" xlink:href="#DejaVuSans-74"/>
     <use x="102.685547" xlink:href="#DejaVuSans-65"/>
     <use x="164.208984" xlink:href="#DejaVuSans-70"/>
     <use x="227.685547" xlink:href="#DejaVuSans-68"/>
     <use x="291.064453" xlink:href="#DejaVuSans-65"/>
     <use x="352.587891" xlink:href="#DejaVuSans-6e"/>
     <use x="415.966797" xlink:href="#DejaVuSans-20"/>
     <use x="447.753906" xlink:href="#DejaVuSans-43"/>
     <use x="517.578125" xlink:href="#DejaVuSans-75"/>
     <use x="580.957031" xlink:href="#DejaVuSans-72"/>
     <use x="620.320312" xlink:href="#DejaVuSans-72"/>
     <use x="661.433594" xlink:href="#DejaVuSans-79"/>
    </g>
   </g>
   <g id="text_19">
    <!-- Anthony Davis -->
    <g transform="translate(167.930713 204.358652)scale(0.05 -0.05)">
     <use xlink:href="#DejaVuSans-41"/>
     <use x="68.408203" xlink:href="#DejaVuSans-6e"/>
     <use x="131.787109" xlink:href="#DejaVuSans-74"/>
     <use x="170.996094" xlink:href="#DejaVuSans-68"/>
     <use x="234.375" xlink:href="#DejaVuSans-6f"/>
     <use x="295.556641" xlink:href="#DejaVuSans-6e"/>
     <use x="358.935547" xlink:href="#DejaVuSans-79"/>
     <use x="418.115234" xlink:href="#DejaVuSans-20"/>
     <use x="449.902344" xlink:href="#DejaVuSans-44"/>
     <use x="526.904297" xlink:href="#DejaVuSans-61"/>
     <use x="588.183594" xlink:href="#DejaVuSans-76"/>
     <use x="647.363281" xlink:href="#DejaVuSans-69"/>
     <use x="675.146484" xlink:href="#DejaVuSans-73"/>
    </g>
   </g>
   <g id="text_20">
    <!-- DeMar DeRozan -->
    <g transform="translate(184.382801 235.453238)scale(0.05 -0.05)">
     <defs>
      <path d="M 2841 2188 
Q 3044 2119 3236 1894 
Q 3428 1669 3622 1275 
L 4263 0 
L 3584 0 
L 2988 1197 
Q 2756 1666 2539 1819 
Q 2322 1972 1947 1972 
L 1259 1972 
L 1259 0 
L 628 0 
L 628 4666 
L 2053 4666 
Q 2853 4666 3247 4331 
Q 3641 3997 3641 3322 
Q 3641 2881 3436 2590 
Q 3231 2300 2841 2188 
z
M 1259 4147 
L 1259 2491 
L 2053 2491 
Q 2509 2491 2742 2702 
Q 2975 2913 2975 3322 
Q 2975 3731 2742 3939 
Q 2509 4147 2053 4147 
L 1259 4147 
z
" id="DejaVuSans-52" transform="scale(0.015625)"/>
      <path d="M 353 3500 
L 3084 3500 
L 3084 2975 
L 922 459 
L 3084 459 
L 3084 0 
L 275 0 
L 275 525 
L 2438 3041 
L 353 3041 
L 353 3500 
z
" id="DejaVuSans-7a" transform="scale(0.015625)"/>
     </defs>
     <use xlink:href="#DejaVuSans-44"/>
     <use x="77.001953" xlink:href="#DejaVuSans-65"/>
     <use x="138.525391" xlink:href="#DejaVuSans-4d"/>
     <use x="224.804688" xlink:href="#DejaVuSans-61"/>
     <use x="286.083984" xlink:href="#DejaVuSans-72"/>
     <use x="327.197266" xlink:href="#DejaVuSans-20"/>
     <use x="358.984375" xlink:href="#DejaVuSans-44"/>
     <use x="435.986328" xlink:href="#DejaVuSans-65"/>
     <use x="497.509766" xlink:href="#DejaVuSans-52"/>
     <use x="562.492188" xlink:href="#DejaVuSans-6f"/>
     <use x="623.673828" xlink:href="#DejaVuSans-7a"/>
     <use x="676.164062" xlink:href="#DejaVuSans-61"/>
     <use x="737.443359" xlink:href="#DejaVuSans-6e"/>
    </g>
   </g>
   <g id="text_21">
    <!-- Luka Don?i? -->
    <g transform="translate(365.355774 59.99093)scale(0.05 -0.05)">
     <defs>
      <path d="M 628 4666 
L 1259 4666 
L 1259 531 
L 3531 531 
L 3531 0 
L 628 0 
L 628 4666 
z
" id="DejaVuSans-4c" transform="scale(0.015625)"/>
      <path d="M 1222 794 
L 1856 794 
L 1856 0 
L 1222 0 
L 1222 794 
z
M 1838 1253 
L 1241 1253 
L 1241 1734 
Q 1241 2050 1328 2253 
Q 1416 2456 1697 2725 
L 1978 3003 
Q 2156 3169 2236 3316 
Q 2316 3463 2316 3616 
Q 2316 3894 2111 4066 
Q 1906 4238 1569 4238 
Q 1322 4238 1042 4128 
Q 763 4019 459 3809 
L 459 4397 
Q 753 4575 1054 4662 
Q 1356 4750 1678 4750 
Q 2253 4750 2601 4447 
Q 2950 4144 2950 3647 
Q 2950 3409 2837 3195 
Q 2725 2981 2444 2713 
L 2169 2444 
Q 2022 2297 1961 2214 
Q 1900 2131 1875 2053 
Q 1856 1988 1847 1894 
Q 1838 1800 1838 1638 
L 1838 1253 
z
" id="DejaVuSans-3f" transform="scale(0.015625)"/>
     </defs>
     <use xlink:href="#DejaVuSans-4c"/>
     <use x="53.962891" xlink:href="#DejaVuSans-75"/>
     <use x="117.341797" xlink:href="#DejaVuSans-6b"/>
     <use x="173.501953" xlink:href="#DejaVuSans-61"/>
     <use x="234.78125" xlink:href="#DejaVuSans-20"/>
     <use x="266.568359" xlink:href="#DejaVuSans-44"/>
     <use x="343.570312" xlink:href="#DejaVuSans-6f"/>
     <use x="404.751953" xlink:href="#DejaVuSans-6e"/>
     <use x="468.130859" xlink:href="#DejaVuSans-3f"/>
     <use x="521.207031" xlink:href="#DejaVuSans-69"/>
     <use x="548.990234" xlink:href="#DejaVuSans-3f"/>
    </g>
   </g>
   <g id="text_22">
    <!-- Kevin Durant -->
    <g transform="translate(213.173956 133.285312)scale(0.05 -0.05)">
     <defs>
      <path d="M 628 4666 
L 1259 4666 
L 1259 2694 
L 3353 4666 
L 4166 4666 
L 1850 2491 
L 4331 0 
L 3500 0 
L 1259 2247 
L 1259 0 
L 628 0 
L 628 4666 
z
" id="DejaVuSans-4b" transform="scale(0.015625)"/>
     </defs>
     <use xlink:href="#DejaVuSans-4b"/>
     <use x="60.576172" xlink:href="#DejaVuSans-65"/>
     <use x="122.099609" xlink:href="#DejaVuSans-76"/>
     <use x="181.279297" xlink:href="#DejaVuSans-69"/>
     <use x="209.0625" xlink:href="#DejaVuSans-6e"/>
     <use x="272.441406" xlink:href="#DejaVuSans-20"/>
     <use x="304.228516" xlink:href="#DejaVuSans-44"/>
     <use x="381.230469" xlink:href="#DejaVuSans-75"/>
     <use x="444.609375" xlink:href="#DejaVuSans-72"/>
     <use x="485.722656" xlink:href="#DejaVuSans-61"/>
     <use x="547.001953" xlink:href="#DejaVuSans-6e"/>
     <use x="610.380859" xlink:href="#DejaVuSans-74"/>
    </g>
   </g>
   <g id="text_23">
    <!-- Kevin Durant -->
    <g transform="translate(233.739066 119.95906)scale(0.05 -0.05)">
     <use xlink:href="#DejaVuSans-4b"/>
     <use x="60.576172" xlink:href="#DejaVuSans-65"/>
     <use x="122.099609" xlink:href="#DejaVuSans-76"/>
     <use x="181.279297" xlink:href="#DejaVuSans-69"/>
     <use x="209.0625" xlink:href="#DejaVuSans-6e"/>
     <use x="272.441406" xlink:href="#DejaVuSans-20"/>
     <use x="304.228516" xlink:href="#DejaVuSans-44"/>
     <use x="381.230469" xlink:href="#DejaVuSans-75"/>
     <use x="444.609375" xlink:href="#DejaVuSans-72"/>
     <use x="485.722656" xlink:href="#DejaVuSans-61"/>
     <use x="547.001953" xlink:href="#DejaVuSans-6e"/>
     <use x="610.380859" xlink:href="#DejaVuSans-74"/>
    </g>
   </g>
   <g id="text_24">
    <!-- Kevin Durant -->
    <g transform="translate(118.574447 202.13761)scale(0.05 -0.05)">
     <use xlink:href="#DejaVuSans-4b"/>
     <use x="60.576172" xlink:href="#DejaVuSans-65"/>
     <use x="122.099609" xlink:href="#DejaVuSans-76"/>
     <use x="181.279297" xlink:href="#DejaVuSans-69"/>
     <use x="209.0625" xlink:href="#DejaVuSans-6e"/>
     <use x="272.441406" xlink:href="#DejaVuSans-20"/>
     <use x="304.228516" xlink:href="#DejaVuSans-44"/>
     <use x="381.230469" xlink:href="#DejaVuSans-75"/>
     <use x="444.609375" xlink:href="#DejaVuSans-72"/>
     <use x="485.722656" xlink:href="#DejaVuSans-61"/>
     <use x="547.001953" xlink:href="#DejaVuSans-6e"/>
     <use x="610.380859" xlink:href="#DejaVuSans-74"/>
    </g>
   </g>
   <g id="text_25">
    <!-- Anthony Edwards -->
    <g transform="translate(262.530221 233.232196)scale(0.05 -0.05)">
     <defs>
      <path d="M 628 4666 
L 3578 4666 
L 3578 4134 
L 1259 4134 
L 1259 2753 
L 3481 2753 
L 3481 2222 
L 1259 2222 
L 1259 531 
L 3634 531 
L 3634 0 
L 628 0 
L 628 4666 
z
" id="DejaVuSans-45" transform="scale(0.015625)"/>
     </defs>
     <use xlink:href="#DejaVuSans-41"/>
     <use x="68.408203" xlink:href="#DejaVuSans-6e"/>
     <use x="131.787109" xlink:href="#DejaVuSans-74"/>
     <use x="170.996094" xlink:href="#DejaVuSans-68"/>
     <use x="234.375" xlink:href="#DejaVuSans-6f"/>
     <use x="295.556641" xlink:href="#DejaVuSans-6e"/>
     <use x="358.935547" xlink:href="#DejaVuSans-79"/>
     <use x="418.115234" xlink:href="#DejaVuSans-20"/>
     <use x="449.902344" xlink:href="#DejaVuSans-45"/>
     <use x="513.085938" xlink:href="#DejaVuSans-64"/>
     <use x="576.5625" xlink:href="#DejaVuSans-77"/>
     <use x="658.349609" xlink:href="#DejaVuSans-61"/>
     <use x="719.628906" xlink:href="#DejaVuSans-72"/>
     <use x="758.992188" xlink:href="#DejaVuSans-64"/>
     <use x="822.46875" xlink:href="#DejaVuSans-73"/>
    </g>
   </g>
   <g id="text_26">
    <!-- Joel Embiid -->
    <g transform="translate(287.208354 44.443636)scale(0.05 -0.05)">
     <defs>
      <path d="M 3116 1747 
Q 3116 2381 2855 2742 
Q 2594 3103 2138 3103 
Q 1681 3103 1420 2742 
Q 1159 2381 1159 1747 
Q 1159 1113 1420 752 
Q 1681 391 2138 391 
Q 2594 391 2855 752 
Q 3116 1113 3116 1747 
z
M 1159 2969 
Q 1341 3281 1617 3432 
Q 1894 3584 2278 3584 
Q 2916 3584 3314 3078 
Q 3713 2572 3713 1747 
Q 3713 922 3314 415 
Q 2916 -91 2278 -91 
Q 1894 -91 1617 61 
Q 1341 213 1159 525 
L 1159 0 
L 581 0 
L 581 4863 
L 1159 4863 
L 1159 2969 
z
" id="DejaVuSans-62" transform="scale(0.015625)"/>
     </defs>
     <use xlink:href="#DejaVuSans-4a"/>
     <use x="29.492188" xlink:href="#DejaVuSans-6f"/>
     <use x="90.673828" xlink:href="#DejaVuSans-65"/>
     <use x="152.197266" xlink:href="#DejaVuSans-6c"/>
     <use x="179.980469" xlink:href="#DejaVuSans-20"/>
     <use x="211.767578" xlink:href="#DejaVuSans-45"/>
     <use x="274.951172" xlink:href="#DejaVuSans-6d"/>
     <use x="372.363281" xlink:href="#DejaVuSans-62"/>
     <use x="435.839844" xlink:href="#DejaVuSans-69"/>
     <use x="463.623047" xlink:href="#DejaVuSans-69"/>
     <use x="491.40625" xlink:href="#DejaVuSans-64"/>
    </g>
   </g>
   <g id="text_27">
    <!-- De'Aaron Fox -->
    <g transform="translate(209.060934 224.348029)scale(0.05 -0.05)">
     <defs>
      <path d="M 1147 4666 
L 1147 2931 
L 616 2931 
L 616 4666 
L 1147 4666 
z
" id="DejaVuSans-27" transform="scale(0.015625)"/>
      <path d="M 628 4666 
L 3309 4666 
L 3309 4134 
L 1259 4134 
L 1259 2759 
L 3109 2759 
L 3109 2228 
L 1259 2228 
L 1259 0 
L 628 0 
L 628 4666 
z
" id="DejaVuSans-46" transform="scale(0.015625)"/>
      <path d="M 3513 3500 
L 2247 1797 
L 3578 0 
L 2900 0 
L 1881 1375 
L 863 0 
L 184 0 
L 1544 1831 
L 300 3500 
L 978 3500 
L 1906 2253 
L 2834 3500 
L 3513 3500 
z
" id="DejaVuSans-78" transform="scale(0.015625)"/>
     </defs>
     <use xlink:href="#DejaVuSans-44"/>
     <use x="77.001953" xlink:href="#DejaVuSans-65"/>
     <use x="138.525391" xlink:href="#DejaVuSans-27"/>
     <use x="166.015625" xlink:href="#DejaVuSans-41"/>
     <use x="234.423828" xlink:href="#DejaVuSans-61"/>
     <use x="295.703125" xlink:href="#DejaVuSans-72"/>
     <use x="334.566406" xlink:href="#DejaVuSans-6f"/>
     <use x="395.748047" xlink:href="#DejaVuSans-6e"/>
     <use x="459.126953" xlink:href="#DejaVuSans-20"/>
     <use x="490.914062" xlink:href="#DejaVuSans-46"/>
     <use x="544.808594" xlink:href="#DejaVuSans-6f"/>
     <use x="602.865234" xlink:href="#DejaVuSans-78"/>
    </g>
   </g>
   <g id="text_28">
    <!-- Shai Gilgeous-Alexander -->
    <g transform="translate(295.434398 82.201348)scale(0.05 -0.05)">
     <defs>
      <path d="M 313 2009 
L 1997 2009 
L 1997 1497 
L 313 1497 
L 313 2009 
z
" id="DejaVuSans-2d" transform="scale(0.015625)"/>
     </defs>
     <use xlink:href="#DejaVuSans-53"/>
     <use x="63.476562" xlink:href="#DejaVuSans-68"/>
     <use x="126.855469" xlink:href="#DejaVuSans-61"/>
     <use x="188.134766" xlink:href="#DejaVuSans-69"/>
     <use x="215.917969" xlink:href="#DejaVuSans-20"/>
     <use x="247.705078" xlink:href="#DejaVuSans-47"/>
     <use x="325.195312" xlink:href="#DejaVuSans-69"/>
     <use x="352.978516" xlink:href="#DejaVuSans-6c"/>
     <use x="380.761719" xlink:href="#DejaVuSans-67"/>
     <use x="444.238281" xlink:href="#DejaVuSans-65"/>
     <use x="505.761719" xlink:href="#DejaVuSans-6f"/>
     <use x="566.943359" xlink:href="#DejaVuSans-75"/>
     <use x="630.322266" xlink:href="#DejaVuSans-73"/>
     <use x="682.421875" xlink:href="#DejaVuSans-2d"/>
     <use x="716.255859" xlink:href="#DejaVuSans-41"/>
     <use x="784.664062" xlink:href="#DejaVuSans-6c"/>
     <use x="812.447266" xlink:href="#DejaVuSans-65"/>
     <use x="872.220703" xlink:href="#DejaVuSans-78"/>
     <use x="931.400391" xlink:href="#DejaVuSans-61"/>
     <use x="992.679688" xlink:href="#DejaVuSans-6e"/>
     <use x="1056.058594" xlink:href="#DejaVuSans-64"/>
     <use x="1119.535156" xlink:href="#DejaVuSans-65"/>
     <use x="1181.058594" xlink:href="#DejaVuSans-72"/>
    </g>
   </g>
   <g id="text_29">
    <!-- Brandon Ingram -->
    <g transform="translate(225.513022 231.011154)scale(0.05 -0.05)">
     <defs>
      <path d="M 628 4666 
L 1259 4666 
L 1259 0 
L 628 0 
L 628 4666 
z
" id="DejaVuSans-49" transform="scale(0.015625)"/>
     </defs>
     <use xlink:href="#DejaVuSans-42"/>
     <use x="68.603516" xlink:href="#DejaVuSans-72"/>
     <use x="109.716797" xlink:href="#DejaVuSans-61"/>
     <use x="170.996094" xlink:href="#DejaVuSans-6e"/>
     <use x="234.375" xlink:href="#DejaVuSans-64"/>
     <use x="297.851562" xlink:href="#DejaVuSans-6f"/>
     <use x="359.033203" xlink:href="#DejaVuSans-6e"/>
     <use x="422.412109" xlink:href="#DejaVuSans-20"/>
     <use x="454.199219" xlink:href="#DejaVuSans-49"/>
     <use x="483.691406" xlink:href="#DejaVuSans-6e"/>
     <use x="547.070312" xlink:href="#DejaVuSans-67"/>
     <use x="610.546875" xlink:href="#DejaVuSans-72"/>
     <use x="651.660156" xlink:href="#DejaVuSans-61"/>
     <use x="712.939453" xlink:href="#DejaVuSans-6d"/>
    </g>
   </g>
   <g id="text_30">
    <!-- Kyrie Irving -->
    <g transform="translate(287.208354 177.706149)scale(0.05 -0.05)">
     <use xlink:href="#DejaVuSans-4b"/>
     <use x="58.326172" xlink:href="#DejaVuSans-79"/>
     <use x="117.505859" xlink:href="#DejaVuSans-72"/>
     <use x="158.619141" xlink:href="#DejaVuSans-69"/>
     <use x="186.402344" xlink:href="#DejaVuSans-65"/>
     <use x="247.925781" xlink:href="#DejaVuSans-20"/>
     <use x="279.712891" xlink:href="#DejaVuSans-49"/>
     <use x="309.205078" xlink:href="#DejaVuSans-72"/>
     <use x="350.318359" xlink:href="#DejaVuSans-76"/>
     <use x="409.498047" xlink:href="#DejaVuSans-69"/>
     <use x="437.28125" xlink:href="#DejaVuSans-6e"/>
     <use x="500.660156" xlink:href="#DejaVuSans-67"/>
    </g>
   </g>
   <g id="text_31">
    <!-- Kyrie Irving -->
    <g transform="translate(303.660442 177.706149)scale(0.05 -0.05)">
     <use xlink:href="#DejaVuSans-4b"/>
     <use x="58.326172" xlink:href="#DejaVuSans-79"/>
     <use x="117.505859" xlink:href="#DejaVuSans-72"/>
     <use x="158.619141" xlink:href="#DejaVuSans-69"/>
     <use x="186.402344" xlink:href="#DejaVuSans-65"/>
     <use x="247.925781" xlink:href="#DejaVuSans-20"/>
     <use x="279.712891" xlink:href="#DejaVuSans-49"/>
     <use x="309.205078" xlink:href="#DejaVuSans-72"/>
     <use x="350.318359" xlink:href="#DejaVuSans-76"/>
     <use x="409.498047" xlink:href="#DejaVuSans-69"/>
     <use x="437.28125" xlink:href="#DejaVuSans-6e"/>
     <use x="500.660156" xlink:href="#DejaVuSans-67"/>
    </g>
   </g>
   <g id="text_32">
    <!-- Kyrie Irving -->
    <g transform="translate(250.191155 179.927191)scale(0.05 -0.05)">
     <use xlink:href="#DejaVuSans-4b"/>
     <use x="58.326172" xlink:href="#DejaVuSans-79"/>
     <use x="117.505859" xlink:href="#DejaVuSans-72"/>
     <use x="158.619141" xlink:href="#DejaVuSans-69"/>
     <use x="186.402344" xlink:href="#DejaVuSans-65"/>
     <use x="247.925781" xlink:href="#DejaVuSans-20"/>
     <use x="279.712891" xlink:href="#DejaVuSans-49"/>
     <use x="309.205078" xlink:href="#DejaVuSans-72"/>
     <use x="350.318359" xlink:href="#DejaVuSans-76"/>
     <use x="409.498047" xlink:href="#DejaVuSans-69"/>
     <use x="437.28125" xlink:href="#DejaVuSans-6e"/>
     <use x="500.660156" xlink:href="#DejaVuSans-67"/>
    </g>
   </g>
   <g id="text_33">
    <!-- LeBron James -->
    <g transform="translate(373.581818 137.727395)scale(0.05 -0.05)">
     <use xlink:href="#DejaVuSans-4c"/>
     <use x="53.962891" xlink:href="#DejaVuSans-65"/>
     <use x="115.486328" xlink:href="#DejaVuSans-42"/>
     <use x="184.089844" xlink:href="#DejaVuSans-72"/>
     <use x="222.953125" xlink:href="#DejaVuSans-6f"/>
     <use x="284.134766" xlink:href="#DejaVuSans-6e"/>
     <use x="347.513672" xlink:href="#DejaVuSans-20"/>
     <use x="379.300781" xlink:href="#DejaVuSans-4a"/>
     <use x="408.792969" xlink:href="#DejaVuSans-61"/>
     <use x="470.072266" xlink:href="#DejaVuSans-6d"/>
     <use x="567.484375" xlink:href="#DejaVuSans-65"/>
     <use x="629.007812" xlink:href="#DejaVuSans-73"/>
    </g>
   </g>
   <g id="text_34">
    <!-- Nikola Joki? -->
    <g transform="translate(69.218182 235.453238)scale(0.05 -0.05)">
     <defs>
      <path d="M 628 4666 
L 1478 4666 
L 3547 763 
L 3547 4666 
L 4159 4666 
L 4159 0 
L 3309 0 
L 1241 3903 
L 1241 0 
L 628 0 
L 628 4666 
z
" id="DejaVuSans-4e" transform="scale(0.015625)"/>
     </defs>
     <use xlink:href="#DejaVuSans-4e"/>
     <use x="74.804688" xlink:href="#DejaVuSans-69"/>
     <use x="102.587891" xlink:href="#DejaVuSans-6b"/>
     <use x="156.873047" xlink:href="#DejaVuSans-6f"/>
     <use x="218.054688" xlink:href="#DejaVuSans-6c"/>
     <use x="245.837891" xlink:href="#DejaVuSans-61"/>
     <use x="307.117188" xlink:href="#DejaVuSans-20"/>
     <use x="338.904297" xlink:href="#DejaVuSans-4a"/>
     <use x="368.396484" xlink:href="#DejaVuSans-6f"/>
     <use x="429.578125" xlink:href="#DejaVuSans-6b"/>
     <use x="487.488281" xlink:href="#DejaVuSans-69"/>
     <use x="515.271484" xlink:href="#DejaVuSans-3f"/>
    </g>
   </g>
   <g id="text_35">
    <!-- Zach LaVine -->
    <g transform="translate(200.834889 228.790112)scale(0.05 -0.05)">
     <defs>
      <path d="M 359 4666 
L 4025 4666 
L 4025 4184 
L 1075 531 
L 4097 531 
L 4097 0 
L 288 0 
L 288 481 
L 3238 4134 
L 359 4134 
L 359 4666 
z
" id="DejaVuSans-5a" transform="scale(0.015625)"/>
      <path d="M 3122 3366 
L 3122 2828 
Q 2878 2963 2633 3030 
Q 2388 3097 2138 3097 
Q 1578 3097 1268 2742 
Q 959 2388 959 1747 
Q 959 1106 1268 751 
Q 1578 397 2138 397 
Q 2388 397 2633 464 
Q 2878 531 3122 666 
L 3122 134 
Q 2881 22 2623 -34 
Q 2366 -91 2075 -91 
Q 1284 -91 818 406 
Q 353 903 353 1747 
Q 353 2603 823 3093 
Q 1294 3584 2113 3584 
Q 2378 3584 2631 3529 
Q 2884 3475 3122 3366 
z
" id="DejaVuSans-63" transform="scale(0.015625)"/>
      <path d="M 1831 0 
L 50 4666 
L 709 4666 
L 2188 738 
L 3669 4666 
L 4325 4666 
L 2547 0 
L 1831 0 
z
" id="DejaVuSans-56" transform="scale(0.015625)"/>
     </defs>
     <use xlink:href="#DejaVuSans-5a"/>
     <use x="68.505859" xlink:href="#DejaVuSans-61"/>
     <use x="129.785156" xlink:href="#DejaVuSans-63"/>
     <use x="184.765625" xlink:href="#DejaVuSans-68"/>
     <use x="248.144531" xlink:href="#DejaVuSans-20"/>
     <use x="279.931641" xlink:href="#DejaVuSans-4c"/>
     <use x="335.644531" xlink:href="#DejaVuSans-61"/>
     <use x="396.923828" xlink:href="#DejaVuSans-56"/>
     <use x="463.082031" xlink:href="#DejaVuSans-69"/>
     <use x="490.865234" xlink:href="#DejaVuSans-6e"/>
     <use x="554.244141" xlink:href="#DejaVuSans-65"/>
    </g>
   </g>
   <g id="text_36">
    <!-- Damian Lillard -->
    <g transform="translate(311.886486 64.433013)scale(0.05 -0.05)">
     <use xlink:href="#DejaVuSans-44"/>
     <use x="77.001953" xlink:href="#DejaVuSans-61"/>
     <use x="138.28125" xlink:href="#DejaVuSans-6d"/>
     <use x="235.693359" xlink:href="#DejaVuSans-69"/>
     <use x="263.476562" xlink:href="#DejaVuSans-61"/>
     <use x="324.755859" xlink:href="#DejaVuSans-6e"/>
     <use x="388.134766" xlink:href="#DejaVuSans-20"/>
     <use x="419.921875" xlink:href="#DejaVuSans-4c"/>
     <use x="475.634766" xlink:href="#DejaVuSans-69"/>
     <use x="503.417969" xlink:href="#DejaVuSans-6c"/>
     <use x="531.201172" xlink:href="#DejaVuSans-6c"/>
     <use x="558.984375" xlink:href="#DejaVuSans-61"/>
     <use x="620.263672" xlink:href="#DejaVuSans-72"/>
     <use x="659.626953" xlink:href="#DejaVuSans-64"/>
    </g>
   </g>
   <g id="text_37">
    <!-- Lauri Markkanen -->
    <g transform="translate(172.043735 211.021777)scale(0.05 -0.05)">
     <use xlink:href="#DejaVuSans-4c"/>
     <use x="55.712891" xlink:href="#DejaVuSans-61"/>
     <use x="116.992188" xlink:href="#DejaVuSans-75"/>
     <use x="180.371094" xlink:href="#DejaVuSans-72"/>
     <use x="221.484375" xlink:href="#DejaVuSans-69"/>
     <use x="249.267578" xlink:href="#DejaVuSans-20"/>
     <use x="281.054688" xlink:href="#DejaVuSans-4d"/>
     <use x="367.333984" xlink:href="#DejaVuSans-61"/>
     <use x="428.613281" xlink:href="#DejaVuSans-72"/>
     <use x="469.726562" xlink:href="#DejaVuSans-6b"/>
     <use x="527.636719" xlink:href="#DejaVuSans-6b"/>
     <use x="583.796875" xlink:href="#DejaVuSans-61"/>
     <use x="645.076172" xlink:href="#DejaVuSans-6e"/>
     <use x="708.455078" xlink:href="#DejaVuSans-65"/>
     <use x="769.978516" xlink:href="#DejaVuSans-6e"/>
    </g>
   </g>
   <g id="text_38">
    <!-- Donovan Mitchell -->
    <g transform="translate(307.773464 151.053647)scale(0.05 -0.05)">
     <use xlink:href="#DejaVuSans-44"/>
     <use x="77.001953" xlink:href="#DejaVuSans-6f"/>
     <use x="138.183594" xlink:href="#DejaVuSans-6e"/>
     <use x="201.5625" xlink:href="#DejaVuSans-6f"/>
     <use x="262.744141" xlink:href="#DejaVuSans-76"/>
     <use x="321.923828" xlink:href="#DejaVuSans-61"/>
     <use x="383.203125" xlink:href="#DejaVuSans-6e"/>
     <use x="446.582031" xlink:href="#DejaVuSans-20"/>
     <use x="478.369141" xlink:href="#DejaVuSans-4d"/>
     <use x="564.648438" xlink:href="#DejaVuSans-69"/>
     <use x="592.431641" xlink:href="#DejaVuSans-74"/>
     <use x="631.640625" xlink:href="#DejaVuSans-63"/>
     <use x="686.621094" xlink:href="#DejaVuSans-68"/>
     <use x="750" xlink:href="#DejaVuSans-65"/>
     <use x="811.523438" xlink:href="#DejaVuSans-6c"/>
     <use x="839.306641" xlink:href="#DejaVuSans-6c"/>
    </g>
   </g>
   <g id="text_39">
    <!-- Ja Morant -->
    <g transform="translate(278.98231 197.695526)scale(0.05 -0.05)">
     <use xlink:href="#DejaVuSans-4a"/>
     <use x="29.492188" xlink:href="#DejaVuSans-61"/>
     <use x="90.771484" xlink:href="#DejaVuSans-20"/>
     <use x="122.558594" xlink:href="#DejaVuSans-4d"/>
     <use x="208.837891" xlink:href="#DejaVuSans-6f"/>
     <use x="270.019531" xlink:href="#DejaVuSans-72"/>
     <use x="311.132812" xlink:href="#DejaVuSans-61"/>
     <use x="372.412109" xlink:href="#DejaVuSans-6e"/>
     <use x="435.791016" xlink:href="#DejaVuSans-74"/>
    </g>
   </g>
   <g id="text_40">
    <!-- Julius Randle -->
    <g transform="translate(225.513022 222.126987)scale(0.05 -0.05)">
     <use xlink:href="#DejaVuSans-4a"/>
     <use x="29.492188" xlink:href="#DejaVuSans-75"/>
     <use x="92.871094" xlink:href="#DejaVuSans-6c"/>
     <use x="120.654297" xlink:href="#DejaVuSans-69"/>
     <use x="148.4375" xlink:href="#DejaVuSans-75"/>
     <use x="211.816406" xlink:href="#DejaVuSans-73"/>
     <use x="263.916016" xlink:href="#DejaVuSans-20"/>
     <use x="295.703125" xlink:href="#DejaVuSans-52"/>
     <use x="362.935547" xlink:href="#DejaVuSans-61"/>
     <use x="424.214844" xlink:href="#DejaVuSans-6e"/>
     <use x="487.59375" xlink:href="#DejaVuSans-64"/>
     <use x="551.070312" xlink:href="#DejaVuSans-6c"/>
     <use x="578.853516" xlink:href="#DejaVuSans-65"/>
    </g>
   </g>
   <g id="text_41">
    <!-- Pascal Siakam -->
    <g transform="translate(221.4 242.116364)scale(0.05 -0.05)">
     <defs>
      <path d="M 1259 4147 
L 1259 2394 
L 2053 2394 
Q 2494 2394 2734 2622 
Q 2975 2850 2975 3272 
Q 2975 3691 2734 3919 
Q 2494 4147 2053 4147 
L 1259 4147 
z
M 628 4666 
L 2053 4666 
Q 2838 4666 3239 4311 
Q 3641 3956 3641 3272 
Q 3641 2581 3239 2228 
Q 2838 1875 2053 1875 
L 1259 1875 
L 1259 0 
L 628 0 
L 628 4666 
z
" id="DejaVuSans-50" transform="scale(0.015625)"/>
     </defs>
     <use xlink:href="#DejaVuSans-50"/>
     <use x="55.802734" xlink:href="#DejaVuSans-61"/>
     <use x="117.082031" xlink:href="#DejaVuSans-73"/>
     <use x="169.181641" xlink:href="#DejaVuSans-63"/>
     <use x="224.162109" xlink:href="#DejaVuSans-61"/>
     <use x="285.441406" xlink:href="#DejaVuSans-6c"/>
     <use x="313.224609" xlink:href="#DejaVuSans-20"/>
     <use x="345.011719" xlink:href="#DejaVuSans-53"/>
     <use x="408.488281" xlink:href="#DejaVuSans-69"/>
     <use x="436.271484" xlink:href="#DejaVuSans-61"/>
     <use x="497.550781" xlink:href="#DejaVuSans-6b"/>
     <use x="553.710938" xlink:href="#DejaVuSans-61"/>
     <use x="614.990234" xlink:href="#DejaVuSans-6d"/>
    </g>
   </g>
   <g id="text_42">
    <!-- Jayson Tatum -->
    <g transform="translate(328.338575 111.074893)scale(0.05 -0.05)">
     <defs>
      <path d="M -19 4666 
L 3928 4666 
L 3928 4134 
L 2272 4134 
L 2272 0 
L 1638 0 
L 1638 4134 
L -19 4134 
L -19 4666 
z
" id="DejaVuSans-54" transform="scale(0.015625)"/>
     </defs>
     <use xlink:href="#DejaVuSans-4a"/>
     <use x="29.492188" xlink:href="#DejaVuSans-61"/>
     <use x="90.771484" xlink:href="#DejaVuSans-79"/>
     <use x="149.951172" xlink:href="#DejaVuSans-73"/>
     <use x="202.050781" xlink:href="#DejaVuSans-6f"/>
     <use x="263.232422" xlink:href="#DejaVuSans-6e"/>
     <use x="326.611328" xlink:href="#DejaVuSans-20"/>
     <use x="358.398438" xlink:href="#DejaVuSans-54"/>
     <use x="402.982422" xlink:href="#DejaVuSans-61"/>
     <use x="464.261719" xlink:href="#DejaVuSans-74"/>
     <use x="503.470703" xlink:href="#DejaVuSans-75"/>
     <use x="566.849609" xlink:href="#DejaVuSans-6d"/>
    </g>
   </g>
   <g id="text_43">
    <!-- Zion Williamson -->
    <g transform="translate(126.800491 202.13761)scale(0.05 -0.05)">
     <defs>
      <path d="M 213 4666 
L 850 4666 
L 1831 722 
L 2809 4666 
L 3519 4666 
L 4500 722 
L 5478 4666 
L 6119 4666 
L 4947 0 
L 4153 0 
L 3169 4050 
L 2175 0 
L 1381 0 
L 213 4666 
z
" id="DejaVuSans-57" transform="scale(0.015625)"/>
     </defs>
     <use xlink:href="#DejaVuSans-5a"/>
     <use x="68.505859" xlink:href="#DejaVuSans-69"/>
     <use x="96.289062" xlink:href="#DejaVuSans-6f"/>
     <use x="157.470703" xlink:href="#DejaVuSans-6e"/>
     <use x="220.849609" xlink:href="#DejaVuSans-20"/>
     <use x="252.636719" xlink:href="#DejaVuSans-57"/>
     <use x="349.263672" xlink:href="#DejaVuSans-69"/>
     <use x="377.046875" xlink:href="#DejaVuSans-6c"/>
     <use x="404.830078" xlink:href="#DejaVuSans-6c"/>
     <use x="432.613281" xlink:href="#DejaVuSans-69"/>
     <use x="460.396484" xlink:href="#DejaVuSans-61"/>
     <use x="521.675781" xlink:href="#DejaVuSans-6d"/>
     <use x="619.087891" xlink:href="#DejaVuSans-73"/>
     <use x="671.1875" xlink:href="#DejaVuSans-6f"/>
     <use x="732.369141" xlink:href="#DejaVuSans-6e"/>
    </g>
   </g>
   <g id="text_44">
    <!-- Trae Young -->
    <g transform="translate(241.965111 197.695526)scale(0.05 -0.05)">
     <defs>
      <path d="M -13 4666 
L 666 4666 
L 1959 2747 
L 3244 4666 
L 3922 4666 
L 2272 2222 
L 2272 0 
L 1638 0 
L 1638 2222 
L -13 4666 
z
" id="DejaVuSans-59" transform="scale(0.015625)"/>
     </defs>
     <use xlink:href="#DejaVuSans-54"/>
     <use x="46.333984" xlink:href="#DejaVuSans-72"/>
     <use x="87.447266" xlink:href="#DejaVuSans-61"/>
     <use x="148.726562" xlink:href="#DejaVuSans-65"/>
     <use x="210.25" xlink:href="#DejaVuSans-20"/>
     <use x="242.037109" xlink:href="#DejaVuSans-59"/>
     <use x="289.871094" xlink:href="#DejaVuSans-6f"/>
     <use x="351.052734" xlink:href="#DejaVuSans-75"/>
     <use x="414.431641" xlink:href="#DejaVuSans-6e"/>
     <use x="477.810547" xlink:href="#DejaVuSans-67"/>
    </g>
   </g>
  </g>
 </g>
 <defs>
  <clipPath id="p6914166761">
   <rect height="217.44" width="334.8" x="54" y="34.56"/>
  </clipPath>
 </defs>
</svg>
